<?xml version="1.0" standalone="no"?>
<!DOCTYPE svg PUBLIC "-//W3C//DTD SVG 20010904//EN"
 "http://www.w3.org/TR/2001/REC-SVG-20010904/DTD/svg10.dtd">
<svg version="1.0" xmlns="http://www.w3.org/2000/svg"
 width="1600.000000pt" height="1136.000000pt" viewBox="0 0 1600.000000 1136.000000"
 preserveAspectRatio="xMidYMid meet">

<g transform="translate(0.000000,1136.000000) scale(0.100000,-0.100000)"
fill="#000000" stroke="none">
<path d="M6935 11349 c-124 -6 -496 -88 -620 -136 -207 -79 -413 -262 -562
-498 -112 -177 -263 -509 -241 -530 3 -3 34 -8 70 -12 l64 -6 52 104 c85 171
144 252 297 404 117 117 157 150 245 202 150 89 202 109 349 138 71 14 390 23
408 12 5 -3 42 -10 84 -16 75 -10 213 -57 319 -109 126 -61 277 -187 366 -306
25 -33 81 -133 123 -221 73 -151 78 -166 90 -265 7 -58 17 -131 21 -162 11
-74 -20 -371 -55 -533 -14 -66 -29 -133 -32 -148 -3 -16 -11 -31 -18 -33 -7
-3 -41 12 -76 34 -101 61 -392 215 -534 282 -71 34 -176 84 -231 110 -223 106
-556 216 -799 263 -242 48 -585 82 -907 91 l-186 6 -16 -47 c-27 -80 -28 -79
82 -93 53 -6 147 -20 209 -31 61 -10 123 -19 137 -19 32 0 32 5 1 -172 -23
-136 -25 -165 -27 -598 -3 -400 -1 -467 15 -551 27 -149 54 -234 116 -369 68
-150 135 -251 229 -345 142 -144 250 -193 436 -202 106 -4 115 -3 216 30 58
19 129 49 159 66 136 81 307 247 412 401 24 36 47 67 50 70 10 8 154 269 177
322 l20 47 130 -60 c72 -32 172 -74 224 -91 92 -32 95 -33 263 -31 160 2 173
4 226 29 83 39 109 86 109 195 0 82 -1 86 -57 197 l-57 113 27 137 c25 125 46
271 78 535 13 108 8 383 -11 562 -18 181 -77 378 -152 512 -24 43 -49 89 -56
103 -20 40 -170 200 -253 272 -30 26 -67 59 -84 73 -91 81 -273 184 -405 228
-107 36 -274 54 -425 46z m-835 -1630 c113 -28 302 -82 420 -121 186 -61 251
-89 475 -201 308 -154 474 -250 720 -413 78 -51 204 -172 226 -217 40 -77 1
-140 -93 -153 -70 -10 -350 46 -382 76 -4 4 10 60 32 123 22 64 38 118 35 121
-4 3 -43 6 -89 6 l-82 0 -42 -117 c-122 -337 -318 -643 -500 -779 -52 -38
-140 -81 -226 -109 -65 -21 -95 -25 -201 -25 -106 0 -132 3 -176 22 -100 42
-147 87 -238 224 -101 151 -139 254 -164 432 -22 167 -20 613 5 907 11 127 20
240 20 253 0 32 25 30 260 -29z"/>
<path d="M5911 9518 c-24 -63 -34 -109 -25 -117 5 -5 74 -32 154 -61 80 -30
148 -56 153 -60 4 -3 1 -26 -7 -51 -8 -24 -23 -73 -34 -109 -63 -206 -105
-339 -118 -373 -28 -74 -35 -69 199 -135 l69 -20 14 34 c8 18 14 40 14 47 0 8
-38 31 -85 52 -47 21 -88 42 -91 46 -3 5 21 89 52 186 93 291 135 436 127 443
-5 4 -93 35 -198 70 -104 35 -196 65 -202 68 -7 2 -17 -7 -22 -20z"/>
<path d="M6658 9220 c-8 -45 -12 -83 -8 -85 9 -5 156 -40 287 -68 128 -28 117
-34 128 71 6 50 4 62 -7 62 -8 0 -93 22 -189 50 -96 27 -179 50 -185 50 -5 0
-17 -36 -26 -80z"/>
<path d="M10980 11208 c-368 -86 -442 -108 -542 -155 -264 -127 -496 -384
-673 -748 -70 -142 -141 -323 -131 -332 8 -8 80 -23 113 -23 31 0 35 4 79 92
25 50 77 139 115 196 162 245 293 363 587 529 183 104 494 150 727 108 50 -9
113 -20 140 -25 56 -9 188 -56 283 -100 129 -60 280 -185 399 -331 80 -99 217
-384 227 -474 4 -33 14 -117 22 -187 22 -180 1 -427 -55 -659 -22 -89 -43
-164 -46 -167 -3 -4 -21 2 -38 12 -476 279 -1082 557 -1438 661 -369 107 -810
166 -1273 169 l-229 1 -7 -25 c-4 -14 -10 -41 -14 -61 l-7 -37 63 -10 c35 -6
145 -23 245 -38 101 -15 188 -31 194 -34 11 -7 7 -33 -34 -260 -18 -95 -17
-1044 1 -1165 16 -110 81 -312 135 -420 39 -80 105 -196 117 -205 3 -3 16 -21
27 -40 32 -52 150 -165 230 -219 38 -26 104 -62 146 -79 70 -30 84 -32 193
-32 110 0 126 3 239 40 191 62 237 92 411 265 110 111 168 177 216 250 70 108
189 314 234 408 16 31 31 56 34 54 104 -53 235 -111 305 -135 173 -59 192 -62
370 -62 l167 0 61 32 c36 20 71 48 89 72 26 37 28 45 28 140 0 109 0 108 -108
310 -14 27 -14 37 7 125 20 86 40 214 86 555 32 235 9 706 -45 915 -47 185
-119 348 -203 461 -57 75 -258 281 -342 349 -191 155 -408 256 -615 287 -142
20 -385 17 -490 -8z m-770 -1732 c194 -44 262 -63 550 -159 224 -74 276 -98
725 -334 345 -181 641 -374 738 -483 103 -116 79 -227 -50 -238 -77 -6 -220
15 -336 50 -83 25 -98 32 -92 46 12 29 85 241 85 247 0 3 -42 5 -93 5 l-94 0
-43 -117 c-84 -228 -139 -338 -278 -553 -153 -237 -281 -340 -521 -421 -75
-26 -99 -29 -210 -29 -147 0 -199 15 -292 83 -46 33 -77 71 -150 182 -158 237
-193 382 -204 840 -6 243 5 479 35 770 16 149 18 158 44 152 11 -2 95 -21 186
-41z"/>
<path d="M10056 9193 c-30 -88 -35 -80 74 -118 84 -30 232 -85 241 -91 4 -2
-11 -61 -33 -131 -21 -71 -47 -155 -57 -188 -10 -33 -37 -118 -60 -189 -26
-79 -38 -133 -32 -139 12 -12 261 -96 286 -97 16 0 25 12 38 47 10 26 14 50
10 54 -5 4 -42 21 -84 38 -126 52 -121 35 -65 207 92 286 156 495 156 514 0
10 -24 23 -68 37 -37 11 -138 46 -224 77 l-157 55 -25 -76z"/>
<path d="M10895 8983 c-3 -15 -10 -47 -16 -70 -14 -63 -11 -91 9 -96 9 -3 49
-12 87 -21 39 -8 128 -29 199 -46 71 -17 130 -29 132 -27 2 1 6 27 9 57 3 30
8 67 11 81 5 26 4 26 -198 84 -111 31 -208 59 -215 62 -7 3 -15 -7 -18 -24z"/>
<path d="M6917 10880 c-92 -44 -134 -81 -142 -124 -10 -48 -51 -104 -136 -188
-89 -87 -123 -147 -175 -305 -19 -57 -34 -108 -34 -113 0 -10 43 -24 226 -74
309 -86 439 -147 726 -343 59 -40 109 -73 112 -73 3 0 6 12 6 28 0 21 -20 46
-94 118 -52 50 -134 121 -183 157 -48 37 -94 72 -101 78 -7 6 -110 58 -228
116 l-214 104 0 34 c0 124 169 376 343 512 32 25 31 41 -6 84 l-22 27 -78 -38z"/>
<path d="M11145 10709 c-97 -49 -127 -71 -219 -163 -79 -79 -142 -185 -205
-345 -43 -109 -96 -279 -90 -286 3 -2 68 -20 144 -40 399 -102 502 -148 868
-387 76 -50 141 -88 144 -84 4 3 1 12 -5 18 -7 7 -12 20 -12 30 0 10 -4 18
-10 18 -5 0 -10 6 -10 13 0 13 -53 66 -155 157 -93 83 -264 199 -315 215 -14
4 -29 11 -35 15 -5 4 -42 18 -81 30 -43 13 -90 37 -120 61 -27 21 -70 48 -96
60 -45 20 -48 24 -48 60 0 118 163 382 313 509 17 14 45 39 64 55 l33 30 -26
38 c-15 20 -34 37 -43 37 -9 0 -52 -19 -96 -41z"/>
<path d="M5260 8084 l-225 -156 -130 9 c-189 12 -504 9 -625 -6 -137 -16 -338
-71 -465 -127 -82 -36 -112 -55 -158 -102 -205 -208 -176 -696 84 -1402 8 -21
30 -32 128 -67 117 -42 141 -49 141 -37 0 3 -11 73 -24 157 -47 294 -59 423
-59 642 l1 210 40 82 c69 142 166 214 347 257 179 43 245 49 550 51 l290 2 84
94 c46 52 96 108 110 124 14 17 60 68 101 115 41 47 81 93 88 102 12 15 10 30
-18 112 -17 53 -32 96 -33 96 -1 -1 -103 -71 -227 -156z"/>
<path d="M985 7996 c-5 -2 -71 -10 -145 -17 -74 -6 -161 -20 -194 -31 -32 -10
-63 -18 -68 -18 -23 0 -148 -57 -222 -101 -175 -105 -306 -296 -342 -499 -19
-106 -8 -283 23 -375 78 -231 320 -457 833 -777 406 -254 747 -413 1270 -595
418 -144 526 -178 975 -299 339 -92 1099 -278 1285 -315 52 -10 181 -37 285
-59 251 -54 452 -95 550 -114 44 -8 152 -28 240 -45 88 -17 255 -47 370 -66
116 -20 271 -47 345 -60 74 -14 160 -29 190 -35 76 -14 462 -75 595 -95 61 -9
196 -30 300 -46 386 -60 443 -69 560 -84 222 -30 399 -54 575 -79 233 -33 485
-62 650 -75 74 -6 232 -20 350 -31 118 -10 292 -26 385 -34 105 -10 366 -18
685 -22 532 -7 799 1 1040 32 63 8 153 19 200 25 78 9 331 57 425 80 97 24
303 107 387 156 228 131 361 249 413 368 22 50 25 69 25 182 l0 126 -77 129
c-89 149 -154 215 -289 291 -67 38 -114 54 -299 101 l-218 56 -252 0 c-229 0
-264 -2 -374 -25 -209 -42 -222 -47 -410 -132 -43 -19 -124 -78 -203 -146 -73
-63 -123 -151 -141 -249 l-13 -73 54 -134 c40 -98 63 -142 85 -160 17 -14 49
-42 71 -63 81 -73 212 -142 336 -176 220 -59 412 -50 616 31 62 24 141 60 176
80 81 45 168 116 168 136 0 12 -52 101 -76 130 -2 2 -32 -15 -66 -37 -105 -67
-192 -94 -351 -105 -116 -8 -147 -7 -202 7 -136 34 -210 111 -222 231 -6 54
-5 57 67 176 64 105 80 124 124 150 28 17 65 39 81 49 17 10 86 35 153 54 112
33 135 36 247 36 106 0 136 -4 207 -26 133 -42 205 -81 274 -148 51 -50 70
-78 104 -154 l41 -93 -27 -102 c-15 -56 -35 -109 -44 -117 -9 -8 -48 -43 -86
-76 -137 -122 -145 -127 -299 -187 -161 -63 -246 -84 -510 -131 -143 -25 -296
-52 -340 -61 -44 -8 -183 -19 -310 -25 -313 -14 -647 2 -1405 70 -346 30 -593
60 -925 110 -77 12 -186 28 -241 35 -296 41 -973 157 -1419 245 -585 115
-1000 201 -1112 229 -46 12 -120 28 -165 37 -46 8 -265 60 -488 115 -223 56
-479 118 -570 139 -147 35 -389 101 -800 220 -74 21 -209 60 -300 85 -352 99
-1217 404 -1498 528 -42 19 -133 58 -202 87 -219 92 -491 229 -620 312 -73 47
-241 178 -317 248 -124 114 -173 293 -124 456 30 98 91 158 220 215 l94 41
206 -5 c217 -5 285 -16 516 -83 346 -100 586 -193 968 -374 l49 -23 79 84 c43
46 78 87 79 91 1 20 -358 253 -550 357 -185 101 -412 207 -590 276 -157 60
-502 141 -660 154 -74 7 -148 14 -165 16 -16 2 -34 2 -40 1z"/>
<path d="M11588 7808 c-26 -57 -50 -110 -53 -119 -7 -19 5 -38 171 -255 66
-88 160 -212 208 -276 l88 -116 102 -35 c55 -19 142 -47 191 -63 141 -42 507
-177 708 -260 428 -176 451 -187 827 -381 259 -134 485 -279 685 -440 127
-103 203 -180 273 -278 28 -38 59 -81 70 -95 25 -33 169 -324 223 -455 56
-133 106 -273 174 -485 30 -96 69 -215 85 -265 42 -127 108 -377 169 -640 119
-516 172 -879 192 -1306 14 -315 8 -464 -29 -705 l-29 -190 -92 -180 c-106
-205 -145 -252 -271 -328 -66 -40 -102 -54 -222 -82 -140 -34 -145 -35 -288
-28 -137 7 -153 10 -293 56 -132 43 -254 99 -422 193 -61 34 -158 101 -248
173 l-68 53 58 43 c130 96 285 274 347 398 56 114 69 180 69 358 1 159 -8 219
-52 364 -11 38 -20 71 -18 72 1 1 49 6 107 11 216 19 388 -39 528 -177 95 -94
189 -276 246 -475 20 -72 76 -308 101 -431 4 -19 8 -20 55 -10 42 8 52 14 57
36 4 14 2 144 -4 290 -10 243 -14 275 -42 380 -16 63 -41 159 -55 213 -37 148
-146 321 -242 388 -75 52 -241 118 -339 135 -109 20 -266 13 -370 -15 -123
-33 -363 -148 -353 -170 2 -3 29 -58 60 -121 81 -163 110 -281 109 -442 -1
-143 -34 -230 -154 -412 -52 -77 -127 -177 -168 -220 -70 -75 -206 -184 -311
-251 -27 -17 -48 -33 -48 -36 0 -12 218 -202 279 -244 32 -22 78 -54 102 -71
117 -83 339 -198 529 -274 165 -66 204 -75 530 -130 139 -24 468 -27 565 -6
134 29 255 116 357 257 109 151 247 575 278 854 6 55 15 136 20 180 5 44 10
276 11 515 1 342 -2 471 -15 605 -17 172 -27 278 -45 485 -6 63 -15 142 -21
175 -5 33 -21 132 -35 220 -39 242 -104 523 -199 860 -53 189 -174 512 -245
653 -49 97 -182 309 -256 407 -109 145 -415 414 -625 549 -224 145 -458 275
-655 364 -49 22 -117 52 -150 67 -33 15 -91 40 -130 55 -38 15 -99 42 -135 59
-36 16 -108 46 -160 64 -52 19 -158 57 -235 85 -77 27 -232 76 -345 107 -113
31 -234 65 -270 75 -69 19 -207 55 -252 64 -29 7 -63 48 -343 411 -81 105
-154 199 -163 210 -10 11 -28 35 -40 53 -13 17 -27 32 -31 32 -3 0 -28 -46
-53 -102z"/>
<path d="M9460 7752 c-80 -54 -189 -129 -243 -167 l-99 -68 -116 7 c-326 18
-458 18 -622 2 -218 -22 -376 -61 -565 -139 -120 -49 -119 -48 -197 -123 -54
-51 -66 -70 -95 -147 -93 -248 -50 -679 119 -1172 65 -190 84 -235 100 -235 7
-1 65 -20 128 -44 63 -24 118 -41 122 -38 6 7 -11 150 -31 262 -6 30 -20 150
-32 265 -17 164 -20 250 -17 395 l5 185 46 90 c69 137 154 208 310 255 192 58
492 86 790 74 168 -6 179 -6 195 12 9 11 37 42 61 69 24 28 65 73 90 100 25
28 84 93 131 145 47 52 97 108 112 125 16 16 28 34 28 40 0 13 -62 188 -70
197 -3 5 -71 -36 -150 -90z"/>
<path d="M5287 7448 c-31 -23 -57 -47 -57 -53 0 -20 234 -552 250 -569 5 -5
25 4 47 21 21 16 48 35 60 43 37 26 188 134 198 143 6 4 55 40 110 79 55 39
102 74 105 77 3 4 17 14 33 24 l27 17 0 -27 c0 -16 -5 -77 -10 -138 -6 -60
-15 -151 -19 -200 -9 -93 -12 -102 -219 -700 -253 -729 -251 -724 -234 -729
35 -10 132 -26 297 -51 94 -14 180 -28 191 -30 20 -4 22 0 28 73 3 42 11 167
16 277 5 110 19 381 30 602 l21 402 104 213 c93 190 105 210 113 188 18 -46
200 -495 220 -541 l20 -46 73 -6 c52 -4 77 -3 86 6 10 11 382 571 460 693 51
80 52 78 -21 118 -35 20 -68 36 -73 36 -5 0 -25 -24 -43 -52 -130 -201 -402
-609 -405 -606 -2 2 -44 100 -94 218 -49 118 -97 233 -106 255 -10 22 -25 62
-35 88 l-17 48 -174 60 c-96 33 -175 55 -177 50 -4 -11 -63 -56 -340 -260
-107 -79 -195 -141 -196 -139 -1 2 -47 105 -102 230 -54 125 -101 228 -104
228 -3 0 -31 -19 -63 -42z"/>
<path d="M9876 7105 c-11 -8 -28 -15 -37 -15 -48 0 -99 -130 -99 -252 0 -40
-7 -98 -15 -128 -8 -30 -15 -78 -15 -106 0 -65 -23 -80 -44 -31 -7 18 -46 109
-86 202 -89 211 -113 265 -117 265 -12 0 -133 -96 -133 -106 0 -6 38 -99 84
-205 136 -314 176 -403 186 -413 5 -5 22 1 42 16 18 13 38 27 43 30 6 4 9 -17
7 -59 -4 -69 12 -103 49 -103 12 0 24 -13 33 -34 27 -66 126 -64 141 3 4 20
32 54 82 101 70 66 113 87 113 57 0 -15 45 -59 77 -76 12 -6 67 -11 122 -11
100 0 100 0 123 30 12 17 25 30 29 30 3 0 12 -14 20 -32 7 -17 36 -62 63 -100
82 -110 96 -136 96 -179 0 -47 35 -89 73 -89 34 0 74 34 87 75 10 32 30 48 30
26 0 -8 70 -18 165 -24 6 0 26 24 46 54 100 147 400 606 456 694 l63 100 -38
22 c-65 39 -121 68 -125 63 -4 -6 -165 -251 -312 -475 -54 -82 -102 -154 -107
-160 -13 -14 1 41 22 90 40 90 64 418 35 474 -35 68 -96 65 -170 -7 -60 -58
-161 -139 -196 -158 -15 -7 -46 -15 -70 -16 -44 -3 -44 -3 -49 34 -3 25 -18
51 -42 78 l-37 40 -86 0 c-81 0 -155 -18 -155 -37 0 -11 -49 -63 -59 -63 -15
0 -158 255 -176 314 -27 89 -70 118 -119 81z"/>
<path d="M1026 5483 c114 -126 239 -262 278 -304 39 -41 114 -122 166 -180
101 -111 451 -491 460 -499 3 -3 82 -88 175 -190 93 -102 224 -244 290 -315
66 -72 170 -184 230 -250 61 -66 139 -151 175 -190 36 -38 70 -74 75 -80 15
-17 197 -215 220 -240 11 -11 44 -48 74 -80 30 -33 84 -91 120 -130 36 -38 88
-95 115 -125 27 -30 81 -89 120 -130 39 -42 93 -100 120 -130 53 -59 125 -137
221 -240 135 -145 289 -313 359 -391 27 -30 95 -103 151 -164 56 -60 211 -229
346 -375 134 -146 264 -287 290 -315 47 -51 303 -330 323 -353 7 -6 99 -30
206 -51 107 -22 254 -52 325 -66 72 -15 180 -35 240 -45 201 -34 398 -69 625
-109 502 -89 757 -128 1460 -220 85 -12 304 -34 485 -51 182 -16 348 -32 370
-34 110 -13 935 -34 1014 -26 47 5 190 19 316 30 242 23 347 43 538 107 216
71 376 163 497 287 75 77 90 98 124 179 l39 92 -6 155 c-5 145 -8 159 -36 221
l-30 67 -78 17 c-43 9 -93 20 -110 25 -39 10 -38 24 -22 -201 l11 -157 -56
-78 c-61 -87 -97 -119 -202 -182 -161 -96 -461 -184 -774 -226 -189 -26 -701
-40 -951 -27 -386 21 -533 30 -619 40 -47 6 -203 24 -348 40 -317 37 -768 107
-1137 176 -318 60 -905 182 -1080 225 -93 22 -269 63 -390 91 -121 28 -220 51
-220 52 -2 4 -173 206 -270 318 -55 63 -122 142 -150 174 -61 72 -365 425
-380 441 -5 6 -19 22 -30 35 -11 13 -114 134 -230 269 -115 135 -221 258 -235
274 -14 17 -41 48 -61 70 -19 23 -105 122 -190 221 -84 99 -165 194 -180 210
-29 34 -67 77 -584 680 -203 237 -423 493 -490 570 -66 77 -244 284 -395 460
-151 176 -282 327 -290 337 -8 9 -76 42 -150 73 -74 31 -202 85 -285 120 -240
100 -603 254 -689 291 -44 19 -83 34 -88 34 -5 0 85 -102 198 -227z"/>
<path d="M12957 4374 c-130 -40 -277 -193 -332 -346 l-28 -78 6 -212 c3 -117
12 -267 21 -333 10 -83 12 -141 6 -187 -7 -60 -13 -73 -54 -121 l-46 -54 -87
-13 c-49 -7 -110 -16 -138 -20 -83 -13 -439 8 -810 47 -581 61 -662 50 -739
-103 -25 -50 -37 -148 -18 -156 4 -1 21 -30 37 -62 30 -60 99 -124 183 -172
45 -25 339 -144 357 -144 3 0 29 -10 56 -21 l49 -21 0 -85 c0 -87 5 -104 80
-269 l30 -65 -25 -49 c-34 -68 -33 -130 5 -229 24 -61 43 -91 86 -134 61 -63
172 -149 250 -195 81 -47 290 -108 454 -131 137 -20 154 -20 305 -7 171 15
224 28 340 81 190 86 311 195 431 389 94 152 154 328 154 450 l-1 81 -22 -45
c-42 -83 -119 -214 -162 -275 -52 -73 -184 -204 -257 -255 -81 -56 -222 -104
-436 -149 -165 -35 -209 -41 -315 -41 -109 0 -138 4 -281 40 -252 64 -367 129
-387 219 -21 95 17 135 144 153 39 5 74 11 75 13 2 2 -6 30 -18 63 -18 49 -27
62 -49 67 -65 15 -138 50 -163 78 -34 38 -37 92 -9 154 23 50 52 66 152 88 41
9 79 18 85 20 8 2 8 23 -1 74 -7 39 -14 73 -16 75 -2 2 -143 32 -314 66 -170
33 -332 68 -360 77 -76 23 -140 69 -173 121 -25 40 -29 53 -23 88 5 33 15 49
51 79 l45 38 130 -6 c72 -4 173 -16 225 -27 107 -23 453 -82 575 -99 44 -6
148 -20 231 -31 131 -19 166 -20 275 -11 141 11 175 22 242 81 59 52 81 94 96
188 11 70 10 79 -30 250 -84 362 -97 502 -58 628 25 83 51 127 101 176 46 44
135 78 149 57 19 -30 20 -83 4 -201 -26 -188 -28 -229 -16 -318 10 -74 16 -90
65 -163 30 -45 85 -123 123 -174 84 -114 147 -231 163 -303 7 -33 10 -106 8
-180 -3 -119 -5 -129 -41 -210 -21 -47 -64 -121 -97 -164 -61 -82 -61 -85 -28
-129 12 -16 17 -17 43 -6 111 49 224 154 279 259 54 102 62 181 38 370 l-19
155 -64 105 c-35 58 -91 142 -126 188 -62 82 -114 179 -129 244 -4 18 -8 152
-9 298 -1 251 -2 268 -23 318 -27 64 -69 103 -131 119 -56 15 -54 15 -114 -3z"/>
</g>
</svg>
