<?xml version="1.0" standalone="no"?>
<!DOCTYPE svg PUBLIC "-//W3C//DTD SVG 20010904//EN"
 "http://www.w3.org/TR/2001/REC-SVG-20010904/DTD/svg10.dtd">
<svg version="1.0" xmlns="http://www.w3.org/2000/svg"
 width="2480.000000pt" height="3425.000000pt" viewBox="0 0 2480.000000 3425.000000"
 preserveAspectRatio="xMidYMid meet">

<g transform="translate(0.000000,3425.000000) scale(0.100000,-0.100000)"
fill="#000000" stroke="none">
<path d="M11195 31170 c-27 -5 -76 -9 -108 -9 -40 -1 -72 -8 -107 -26 -27 -14
-63 -25 -80 -25 -17 0 -46 -6 -65 -14 -28 -12 -36 -22 -46 -60 -17 -66 -47
-78 -239 -89 -85 -4 -174 -15 -198 -22 -37 -12 -50 -12 -85 -1 -114 38 -179
48 -226 36 -85 -20 -236 -72 -294 -101 -32 -16 -69 -29 -82 -29 -13 0 -27 -4
-30 -10 -3 -5 -16 -10 -29 -10 -12 0 -26 -4 -32 -9 -5 -5 -27 -14 -49 -21 -54
-17 -83 -38 -100 -69 -23 -43 -182 -201 -203 -201 -11 0 -47 -25 -81 -55 -34
-30 -70 -55 -79 -55 -19 0 -77 -37 -152 -95 -25 -19 -72 -53 -105 -75 -128
-84 -165 -114 -165 -132 0 -4 -18 -19 -39 -33 -48 -29 -80 -62 -92 -92 -4 -12
-21 -30 -36 -39 -15 -10 -50 -41 -78 -70 -133 -138 -177 -200 -265 -369 -17
-33 -40 -69 -51 -80 -10 -12 -22 -36 -25 -55 -4 -19 -26 -77 -50 -128 -24 -51
-57 -134 -74 -185 -17 -51 -39 -101 -49 -112 -24 -26 -59 -128 -72 -207 -6
-35 -23 -90 -39 -123 -46 -96 -68 -169 -80 -273 -7 -53 -18 -108 -25 -123 -27
-51 -65 -341 -65 -490 0 -40 -8 -89 -20 -124 -16 -48 -20 -85 -20 -209 -1
-237 -16 -405 -38 -430 -11 -12 -22 -29 -25 -38 -8 -22 -78 -58 -113 -58 -28
0 -104 -68 -104 -94 0 -7 -15 -26 -34 -42 -60 -54 -86 -185 -86 -438 0 -143 4
-201 21 -276 11 -52 23 -115 28 -140 13 -71 113 -266 172 -334 19 -22 49 -66
67 -96 17 -30 63 -86 102 -124 38 -38 70 -72 70 -76 0 -14 46 -58 75 -73 17
-8 51 -33 76 -56 27 -23 75 -51 115 -66 112 -42 112 -42 118 -214 3 -80 8
-176 11 -212 5 -52 1 -87 -19 -166 -40 -159 -42 -252 -11 -418 24 -128 26
-162 26 -398 0 -183 4 -272 14 -310 7 -28 18 -110 25 -182 7 -71 16 -134 21
-139 5 -6 9 -17 9 -25 0 -8 13 -42 29 -75 16 -34 35 -81 42 -104 12 -41 26
-57 111 -122 54 -42 78 -50 143 -50 67 0 109 10 168 41 83 45 108 10 118 -166
6 -102 11 -128 33 -174 15 -29 29 -77 32 -105 8 -78 11 -89 38 -118 28 -29 28
-13 -4 -193 -5 -32 -23 -84 -39 -115 -36 -69 -60 -140 -71 -208 -6 -33 -21
-69 -40 -95 -16 -22 -30 -47 -30 -54 0 -7 -18 -30 -40 -51 -32 -32 -53 -43
-112 -57 -40 -10 -104 -29 -143 -42 -38 -13 -95 -31 -125 -39 -30 -9 -65 -22
-77 -30 -12 -8 -29 -14 -36 -14 -8 0 -22 -9 -32 -20 -10 -11 -23 -20 -28 -20
-6 0 -26 -12 -46 -27 -20 -16 -50 -37 -66 -49 -78 -53 -234 -209 -252 -252 -7
-18 -22 -41 -32 -51 -31 -31 -176 -263 -200 -319 -12 -30 -32 -70 -44 -90 -46
-80 -67 -126 -67 -149 0 -13 -15 -63 -34 -111 -19 -48 -37 -109 -41 -137 -4
-27 -18 -81 -30 -120 -35 -107 -45 -167 -45 -270 0 -120 -13 -137 -115 -159
-38 -8 -89 -20 -112 -25 -23 -6 -83 -17 -135 -25 -95 -15 -181 -47 -231 -88
-16 -13 -43 -35 -60 -49 -18 -14 -53 -40 -79 -58 -26 -17 -52 -40 -58 -51 -5
-10 -37 -38 -71 -61 -33 -24 -67 -56 -75 -71 -8 -16 -32 -45 -53 -64 -22 -19
-51 -59 -66 -88 -15 -30 -49 -76 -76 -102 -27 -27 -49 -53 -49 -60 0 -13 -80
-82 -127 -109 -18 -11 -33 -23 -33 -27 0 -20 -67 -80 -113 -101 -29 -14 -69
-40 -89 -60 -21 -19 -50 -40 -65 -46 -16 -6 -37 -26 -48 -43 -11 -17 -27 -42
-35 -54 -7 -12 -27 -30 -42 -39 -32 -19 -273 -259 -281 -279 -3 -8 -37 -39
-75 -69 -38 -31 -75 -69 -82 -86 -6 -17 -22 -33 -33 -37 -25 -8 -78 -60 -102
-102 -10 -16 -32 -36 -49 -45 -17 -8 -49 -38 -71 -66 -22 -29 -59 -75 -83
-102 -23 -28 -54 -69 -69 -92 -14 -23 -46 -65 -72 -93 -49 -55 -101 -116 -148
-174 -15 -19 -34 -41 -41 -49 -8 -8 -39 -50 -70 -93 -32 -43 -76 -105 -99
-136 -23 -31 -47 -66 -52 -78 -5 -11 -15 -27 -23 -35 -27 -28 -59 -79 -70
-111 -6 -18 -27 -55 -47 -83 -20 -27 -44 -68 -53 -90 -32 -75 -80 -220 -93
-275 -7 -31 -20 -71 -30 -90 -18 -36 -27 -95 -45 -303 -12 -147 -28 -242 -48
-287 -9 -20 -19 -83 -23 -145 -4 -60 -15 -220 -24 -355 -9 -135 -21 -303 -26
-375 -6 -71 -15 -184 -21 -250 -5 -66 -13 -253 -16 -415 -5 -207 -11 -302 -19
-317 -20 -33 -18 -534 2 -588 9 -25 14 -80 15 -145 0 -108 12 -171 50 -274 12
-33 24 -82 27 -110 3 -29 18 -74 34 -102 16 -28 29 -60 29 -69 0 -37 62 -222
100 -300 22 -44 46 -108 55 -143 8 -34 24 -82 35 -107 11 -24 20 -52 20 -62 0
-9 16 -53 36 -98 20 -44 41 -91 46 -105 29 -74 81 -164 115 -198 7 -7 13 -21
13 -30 0 -28 60 -134 101 -179 22 -24 39 -47 39 -53 0 -6 25 -47 55 -91 51
-75 107 -138 228 -259 26 -26 47 -52 47 -58 0 -6 25 -39 55 -73 30 -34 55 -65
55 -69 0 -12 83 -100 94 -100 14 0 83 -76 101 -110 8 -16 25 -37 39 -47 26
-21 96 -154 96 -183 0 -9 16 -47 35 -83 19 -36 35 -77 35 -92 0 -14 4 -33 9
-43 22 -42 84 -180 96 -212 7 -19 22 -57 35 -85 29 -65 33 -77 60 -160 13 -38
33 -90 46 -115 13 -25 46 -94 74 -155 29 -60 69 -145 91 -189 21 -43 39 -86
39 -96 0 -9 18 -44 40 -76 22 -33 40 -67 40 -77 0 -19 37 -97 84 -177 14 -25
26 -52 26 -60 0 -8 22 -53 50 -99 27 -47 52 -98 56 -115 4 -17 21 -47 39 -67
18 -20 38 -54 45 -75 7 -22 18 -46 25 -54 18 -22 107 -176 139 -240 16 -30 36
-62 45 -70 26 -22 59 -73 66 -102 4 -14 15 -35 26 -47 31 -33 69 -93 69 -108
0 -7 22 -44 49 -81 27 -37 62 -90 77 -118 54 -94 69 -117 98 -148 31 -34 56
-84 56 -115 0 -11 14 -30 31 -43 62 -46 89 -77 89 -100 0 -13 19 -45 44 -73
23 -28 51 -66 61 -85 10 -19 34 -55 54 -79 52 -63 120 -161 196 -279 60 -94
111 -166 153 -217 9 -11 49 -63 88 -116 40 -52 80 -101 88 -108 9 -8 16 -19
16 -25 0 -7 12 -23 26 -37 31 -28 68 -84 79 -118 11 -36 74 -119 94 -126 17
-5 81 -96 81 -116 0 -5 22 -32 50 -61 27 -29 55 -69 61 -88 18 -59 37 -95 60
-116 12 -10 39 -55 61 -99 21 -44 51 -95 66 -115 28 -36 82 -118 82 -124 0 -2
18 -30 40 -62 23 -33 48 -70 57 -84 17 -25 115 -134 203 -225 26 -27 55 -65
64 -83 9 -17 21 -32 25 -32 5 0 28 -28 52 -63 36 -53 81 -103 211 -235 14 -15
43 -40 63 -57 20 -16 59 -53 88 -80 29 -28 69 -58 88 -68 20 -9 42 -24 50 -33
7 -9 37 -27 65 -40 29 -13 62 -37 74 -54 12 -16 33 -33 48 -36 31 -7 86 -31
122 -55 39 -26 259 -116 315 -129 28 -7 69 -19 93 -28 37 -13 83 -14 307 -9
167 4 272 10 285 17 12 6 29 28 37 48 18 43 28 52 63 52 53 1 157 48 250 114
50 35 107 58 190 76 30 7 75 19 100 28 58 20 184 17 354 -8 71 -11 148 -20
171 -20 26 0 60 -10 89 -25 28 -15 64 -25 89 -25 38 -1 125 -16 217 -39 33 -9
128 -27 265 -51 35 -7 173 -10 330 -9 266 2 271 2 313 26 36 20 60 25 156 29
62 2 128 9 147 14 18 6 85 10 148 10 92 0 120 4 150 19 32 17 76 21 361 32
458 19 528 18 571 -7 32 -19 35 -25 45 -94 14 -98 55 -210 93 -257 16 -21 34
-57 39 -80 8 -35 42 -96 62 -113 4 -3 25 -33 49 -68 23 -34 54 -70 69 -79 15
-10 31 -24 36 -33 5 -8 35 -37 65 -65 73 -66 171 -164 171 -172 0 -8 41 -43
50 -43 4 0 15 -16 24 -35 10 -19 29 -43 44 -52 15 -9 33 -23 39 -32 7 -8 47
-50 88 -93 54 -56 85 -80 108 -85 39 -7 74 -25 106 -52 13 -12 54 -30 90 -42
57 -18 81 -19 173 -14 89 6 118 12 169 36 33 16 72 29 85 29 28 0 122 40 184
80 25 15 60 31 78 35 17 4 51 23 75 42 23 20 61 44 84 55 23 10 65 43 94 73
29 30 61 55 71 55 11 0 49 29 84 64 36 36 86 77 112 92 26 15 76 53 112 84 64
55 123 90 153 90 9 0 34 20 57 44 27 28 53 46 74 50 19 4 44 16 57 27 13 11
49 32 79 46 30 13 78 36 105 50 129 67 226 113 238 113 7 0 35 14 63 32 27 17
67 37 89 43 22 7 82 33 134 59 51 25 97 46 102 46 4 0 32 14 61 31 86 52 140
79 154 79 8 0 31 15 51 33 21 18 52 39 70 46 17 7 42 24 54 37 13 14 49 39 80
55 36 19 63 42 74 62 10 19 44 49 81 72 36 22 94 68 129 103 36 34 73 62 83
62 9 0 42 22 72 50 30 27 58 50 62 50 5 0 25 16 46 35 72 67 165 137 204 152
21 8 56 36 78 61 23 25 57 53 78 62 20 9 80 54 132 98 52 45 98 82 103 82 4 0
7 5 7 11 0 18 58 96 110 147 27 26 52 60 55 75 4 15 23 42 43 60 20 17 75 70
123 116 48 46 100 90 116 96 16 7 45 26 64 42 19 17 48 37 65 46 17 9 55 40
85 70 30 30 81 77 114 106 32 29 64 64 71 80 6 15 41 50 78 76 46 34 69 58 75
79 4 17 24 55 44 85 20 29 46 79 57 110 12 31 36 85 52 121 17 36 32 89 35
120 2 30 11 75 18 100 8 25 21 104 30 175 9 72 23 144 30 160 17 40 35 128 35
173 1 39 9 56 50 110 13 18 30 52 36 75 7 23 33 101 58 172 58 165 59 238 5
348 -11 23 -22 69 -25 102 -6 63 -47 275 -65 335 -6 19 -15 80 -19 135 -5 55
-12 125 -16 156 -8 71 7 101 80 163 89 76 125 200 107 370 -9 85 -15 107 -42
150 -68 107 -71 116 -62 181 4 33 7 134 7 225 -1 163 -1 166 -33 240 -50 115
-52 126 -45 260 9 188 -3 260 -68 388 -29 59 -57 112 -63 117 -22 23 -74 55
-89 55 -9 0 -24 4 -34 9 -89 46 -133 61 -172 61 -50 0 -90 22 -90 48 0 9 14
32 30 50 16 19 31 41 34 50 31 103 27 316 -9 432 -17 56 -33 86 -65 120 -23
25 -49 57 -58 72 -16 28 -84 65 -170 93 -53 18 -72 17 -187 -4 -62 -11 -200 0
-217 17 -10 10 -9 20 10 52 12 22 24 58 26 81 3 28 13 51 32 70 20 21 29 44
35 85 6 41 15 64 35 85 17 18 30 45 35 76 9 61 37 125 61 143 4 4 14 38 21 78
8 42 24 87 40 109 14 21 29 55 32 76 4 21 18 53 31 72 39 57 45 75 54 137 6
41 20 79 44 118 20 32 36 71 36 87 0 15 14 51 30 78 16 28 30 62 30 77 0 14
15 55 34 90 18 35 40 92 49 127 11 44 26 75 47 96 22 23 30 40 30 67 0 21 13
60 31 94 17 33 41 95 54 139 12 44 32 100 44 125 11 25 21 52 21 60 0 9 12 32
26 53 25 38 54 116 54 150 0 10 14 39 32 64 19 28 36 72 45 111 9 43 25 80 47
111 29 39 34 54 33 94 -1 26 3 51 8 55 27 18 55 68 55 96 0 18 13 52 28 77 30
47 42 76 62 149 7 25 26 73 42 108 17 34 33 82 36 105 3 25 17 57 33 77 16 19
32 51 35 70 4 19 19 60 34 90 15 30 33 81 39 112 7 31 20 67 30 80 17 22 33
64 62 167 7 24 21 53 30 66 24 29 43 108 35 140 -8 31 -40 45 -101 45 -35 0
-52 6 -77 29 -34 29 -92 51 -139 51 -14 0 -45 14 -68 30 -25 19 -66 36 -106
44 -39 8 -76 23 -94 39 -17 14 -45 28 -63 32 -18 4 -51 17 -73 30 -22 13 -65
30 -95 38 -30 9 -69 21 -86 28 -46 18 -99 4 -127 -34 -23 -31 -57 -127 -57
-160 0 -8 -3 -17 -8 -19 -15 -7 -53 -95 -67 -158 -8 -36 -21 -69 -28 -75 -24
-18 -37 -52 -37 -98 0 -37 -6 -52 -35 -83 -19 -22 -37 -55 -41 -74 -10 -60
-25 -103 -55 -157 -16 -29 -37 -83 -48 -120 -20 -74 -52 -154 -87 -218 -12
-22 -27 -65 -34 -95 -7 -30 -25 -80 -40 -110 -16 -30 -36 -80 -46 -110 -9 -30
-25 -66 -34 -80 -26 -40 -40 -79 -40 -110 0 -15 -15 -57 -33 -92 -19 -35 -40
-81 -47 -103 -7 -22 -24 -65 -37 -95 -14 -30 -32 -80 -40 -110 -7 -30 -20 -61
-27 -70 -8 -8 -24 -44 -37 -80 -13 -36 -29 -76 -36 -90 -7 -14 -13 -29 -13
-34 0 -5 -9 -27 -19 -50 -11 -23 -31 -79 -46 -126 -26 -84 -55 -130 -82 -130
-27 0 -72 30 -86 57 -33 63 -74 131 -109 182 -21 30 -38 62 -38 72 0 10 -6 24
-14 32 -8 7 -23 30 -34 51 -16 30 -18 44 -10 79 15 67 88 298 109 344 10 24
19 55 19 70 0 16 14 57 30 91 17 35 30 74 30 87 0 13 4 34 9 47 5 13 19 50 31
83 12 33 26 69 30 80 14 34 50 146 70 218 10 38 29 85 43 105 16 25 26 59 30
101 4 35 11 69 16 75 12 15 58 153 67 201 4 22 20 64 35 93 15 29 33 76 40
105 6 28 18 58 26 65 7 7 13 21 14 30 2 48 14 91 74 257 29 83 56 173 60 200
4 28 15 65 26 83 10 18 26 60 34 95 9 34 22 76 30 92 23 51 42 105 85 245 24
74 53 158 65 185 13 28 26 72 30 100 4 27 13 62 21 77 15 28 34 85 53 158 25
95 43 142 66 176 14 20 27 52 30 73 9 58 70 248 144 453 12 32 21 75 21 95 0
25 9 52 27 78 18 26 26 52 26 75 -1 22 12 61 34 105 19 39 43 108 54 154 10
46 30 103 44 127 14 23 25 53 25 66 0 13 14 50 30 83 17 33 30 71 30 85 0 15
9 45 20 68 30 61 26 96 -22 176 -47 80 -101 126 -186 159 -37 14 -60 30 -73
51 -34 57 -43 66 -79 77 -19 6 -52 24 -72 40 -20 16 -43 29 -51 29 -8 0 -32
13 -55 30 -22 16 -53 32 -68 36 -15 4 -88 37 -163 75 -75 37 -148 71 -163 74
-16 4 -28 11 -28 15 0 4 -35 17 -77 30 -43 12 -98 33 -123 46 -25 13 -85 35
-135 49 -49 15 -99 30 -110 35 -11 4 -47 17 -80 30 -33 12 -69 25 -80 30 -33
13 -101 30 -122 30 -10 0 -37 13 -59 29 -31 22 -53 29 -110 34 -45 4 -91 15
-129 33 -33 14 -89 31 -125 36 -36 6 -97 20 -136 33 -44 13 -78 19 -87 14 -8
-5 -18 -30 -22 -56 -4 -27 -24 -89 -46 -140 -28 -66 -39 -106 -39 -142 0 -40
-4 -53 -22 -65 -33 -23 -112 -20 -219 10 -191 52 -211 54 -467 57 -217 2 -333
-3 -409 -19 -11 -2 -38 -20 -60 -40 -21 -19 -49 -46 -63 -59 -33 -31 -60 -107
-60 -168 0 -31 -9 -65 -25 -97 -14 -27 -25 -62 -25 -77 0 -15 -10 -59 -21 -98
-11 -38 -24 -83 -28 -100 -5 -16 -20 -64 -34 -105 -15 -41 -31 -106 -36 -144
-6 -38 -14 -72 -19 -75 -13 -10 -30 -62 -35 -111 -2 -25 -13 -65 -25 -90 -11
-25 -25 -65 -31 -90 -20 -78 -34 -125 -44 -137 -14 -19 -51 -16 -89 6 -18 10
-51 22 -73 25 -22 4 -72 20 -110 36 -40 16 -107 33 -153 39 -52 7 -100 20
-134 37 -37 19 -84 31 -157 41 -66 8 -137 26 -197 48 -51 19 -108 35 -126 35
-19 0 -69 14 -112 30 -43 17 -98 35 -122 40 -25 6 -63 24 -86 40 -22 17 -52
30 -65 30 -30 0 -58 16 -108 61 -22 19 -60 44 -85 54 -25 10 -57 30 -71 44
-14 14 -45 42 -70 61 -24 19 -60 51 -80 70 -19 19 -44 42 -55 51 -10 9 -37 36
-60 60 -86 93 -204 188 -279 225 -31 14 -58 31 -61 35 -3 5 -20 16 -37 24 -18
8 -54 29 -80 45 -27 17 -66 34 -88 39 -23 5 -57 25 -82 48 -34 31 -55 41 -109
52 -63 12 -71 17 -146 89 -73 72 -152 172 -152 194 0 5 -22 35 -50 66 -27 31
-50 62 -50 69 0 8 -16 29 -35 48 -55 56 -67 111 -70 325 -3 158 -6 193 -24
240 -11 30 -27 98 -35 150 -7 52 -26 124 -41 160 -27 63 -28 73 -35 314 -4
138 -4 264 0 282 8 32 60 108 93 132 9 7 17 18 17 24 0 6 20 43 45 82 25 40
45 78 45 84 0 6 10 23 23 39 23 29 50 80 87 168 31 73 42 96 66 132 12 17 29
62 38 100 19 76 73 227 92 258 7 11 25 58 39 103 15 46 35 98 46 115 32 53 59
117 59 140 0 12 11 49 25 82 13 33 25 68 25 77 0 10 11 41 24 70 14 29 32 86
40 125 8 40 22 86 33 102 33 53 99 135 166 206 46 50 69 84 77 115 11 39 35
88 51 100 3 3 14 30 24 60 17 49 19 102 22 505 3 427 -1 532 -29 782 -12 116
-4 154 41 176 14 6 34 27 43 46 19 38 42 56 97 75 42 16 68 34 114 84 17 17
35 32 42 32 19 0 167 97 224 147 50 44 186 178 215 213 33 39 86 133 99 177 8
26 27 73 43 103 l28 55 4 257 c3 246 2 258 -18 295 -66 119 -113 181 -145 189
-14 3 -25 9 -25 13 0 15 -56 33 -122 42 -37 5 -79 16 -92 24 -34 22 -57 76
-50 113 4 17 -1 55 -9 84 -8 29 -20 103 -27 163 -6 61 -15 135 -20 165 -5 30
-14 118 -20 195 -10 121 -35 267 -71 410 -5 22 -13 88 -18 147 -7 92 -11 110
-33 136 -18 22 -27 50 -36 109 -6 44 -27 119 -47 167 -19 49 -35 93 -35 98 0
6 -6 24 -14 41 -8 18 -22 57 -32 87 -9 30 -30 76 -46 101 -15 25 -28 50 -28
56 0 12 -101 207 -111 213 -5 3 -15 23 -24 44 -9 21 -28 57 -43 79 -48 72 -72
112 -78 127 -5 15 -16 36 -53 100 -11 19 -41 58 -66 85 -24 28 -45 58 -45 67
0 9 -25 44 -55 76 -30 33 -55 63 -55 67 0 4 -14 24 -31 44 -68 81 -121 152
-133 182 -7 17 -39 58 -72 92 -32 34 -113 122 -178 194 -66 73 -127 135 -136
138 -9 3 -42 33 -72 68 -46 52 -65 66 -111 80 -38 12 -68 30 -93 57 -41 44
-61 52 -154 70 -70 13 -110 40 -110 75 0 25 -49 75 -73 75 -18 0 -62 18 -157
66 -141 70 -179 77 -445 79 -344 2 -390 12 -410 81 -9 33 -17 41 -62 59 -28
11 -66 31 -83 45 -23 18 -50 27 -94 31 -83 9 -220 8 -281 -1z m262 -226 c64
-5 86 -11 100 -26 17 -19 18 -72 19 -907 2 -1003 11 -1211 54 -1211 15 0 60
53 64 75 13 67 29 332 36 600 9 328 22 498 46 580 10 37 15 121 16 316 3 247
2 268 -15 287 -25 27 -18 54 18 71 39 19 120 27 129 12 4 -6 16 -11 26 -11 33
0 44 -36 25 -82 -14 -36 -15 -68 -5 -302 10 -236 13 -265 33 -301 21 -39 21
-51 28 -670 4 -346 10 -642 14 -657 4 -15 13 -32 20 -38 30 -25 41 23 75 325
6 55 15 127 20 160 5 33 14 139 19 235 35 588 37 665 21 830 -5 52 -10 178
-10 280 -1 192 5 234 39 245 22 7 124 -20 181 -47 25 -12 65 -28 89 -37 24 -9
52 -28 63 -41 18 -25 18 -27 -3 -90 -11 -36 -27 -76 -34 -90 -15 -27 -26 -53
-73 -175 -29 -77 -31 -89 -42 -325 -14 -298 -14 -556 -1 -925 6 -154 11 -395
11 -536 0 -192 3 -265 14 -290 18 -45 40 -617 30 -799 -10 -200 -20 -211 -194
-217 -63 -2 -167 -8 -230 -13 -151 -14 -604 -16 -1180 -5 l-465 8 -44 -22
c-23 -12 -44 -21 -45 -19 -39 61 -38 55 -35 252 2 105 -3 279 -10 386 -7 107
-14 247 -16 310 -1 63 -5 144 -9 180 -4 36 -13 227 -21 425 -11 278 -19 383
-34 460 -21 102 -35 204 -51 375 -5 52 -16 120 -25 150 -47 163 -55 200 -56
255 -2 71 -11 98 -44 137 -14 16 -25 40 -25 52 0 21 -33 113 -64 181 -8 17
-25 57 -38 89 -15 39 -32 65 -49 75 -26 15 -76 84 -92 129 -12 32 14 59 66 67
50 8 124 39 150 63 15 13 38 17 106 17 80 0 90 -2 136 -32 56 -35 79 -69 89
-127 4 -22 18 -61 31 -88 32 -66 43 -128 51 -283 5 -111 9 -135 28 -165 20
-30 24 -59 35 -210 7 -96 11 -220 10 -275 -2 -91 13 -223 41 -360 6 -27 15
-113 21 -190 10 -139 26 -276 36 -302 9 -24 27 -8 41 38 11 35 13 179 12 724
-1 670 -5 761 -36 880 -29 108 -34 132 -43 213 -6 59 -14 86 -30 103 -11 13
-21 26 -21 31 0 38 188 54 231 19 22 -17 23 -26 25 -142 2 -68 7 -145 13 -170
6 -26 14 -110 17 -187 l7 -140 32 -31 32 -30 6 -273 c5 -229 9 -278 23 -307 9
-18 18 -50 19 -70 6 -84 25 -392 29 -465 3 -54 9 -84 20 -94 14 -15 17 -14 30
3 8 11 18 38 21 60 4 22 5 369 2 770 -4 704 -5 733 -25 815 -12 47 -27 149
-34 226 l-12 142 30 36 c16 19 39 49 52 65 22 29 26 30 120 34 104 4 227 1
359 -9z m1383 -488 c91 -28 204 -94 271 -158 37 -35 89 -80 117 -101 28 -22
56 -53 63 -70 14 -34 46 -66 66 -67 15 0 57 -50 72 -87 7 -17 26 -37 44 -45
18 -9 48 -39 68 -69 119 -181 147 -220 193 -274 57 -66 100 -129 110 -161 3
-11 15 -30 27 -42 22 -24 84 -113 189 -272 9 -14 36 -61 60 -105 24 -44 57
-105 73 -135 50 -92 64 -122 97 -210 18 -47 50 -130 71 -184 22 -56 42 -126
46 -160 3 -34 14 -72 23 -86 27 -40 31 -59 40 -175 6 -82 15 -126 34 -172 29
-70 33 -124 11 -143 -19 -15 -94 -7 -133 15 -15 8 -63 28 -107 45 -44 17 -84
35 -90 41 -5 5 -36 9 -70 9 -33 0 -86 9 -119 20 -32 11 -62 17 -67 15 -4 -3
-25 -2 -46 3 -49 11 -60 7 -81 -31 -15 -29 -17 -70 -17 -377 -1 -357 -4 -390
-43 -405 -8 -3 -25 4 -38 16 -19 18 -42 23 -121 30 -54 5 -107 12 -118 15 -11
4 -184 12 -385 18 -249 8 -372 16 -387 24 -29 16 -44 70 -31 119 18 73 19 384
2 625 -9 128 -21 391 -26 583 -20 783 -24 911 -35 941 -7 20 -8 78 -2 180 4
82 8 199 8 260 1 72 6 127 16 154 8 23 15 58 15 77 0 19 11 62 25 96 13 35 38
102 54 151 38 113 42 116 121 92z m-3262 -46 c18 -11 41 -35 50 -52 9 -18 30
-45 45 -62 16 -16 35 -39 43 -51 16 -25 44 -111 44 -140 0 -11 14 -38 30 -59
23 -31 30 -50 30 -85 0 -42 50 -267 65 -291 3 -5 10 -53 15 -107 4 -54 13
-120 19 -148 10 -45 26 -152 51 -335 5 -36 9 -109 10 -162 0 -53 4 -100 10
-103 6 -3 10 -23 10 -44 0 -43 23 -212 46 -340 12 -69 15 -166 15 -491 0 -519
-8 -724 -27 -771 l-15 -35 -207 -3 c-114 -1 -258 -8 -320 -16 -199 -26 -342
-36 -542 -40 -163 -2 -199 0 -222 13 -34 20 -42 56 -29 124 5 29 13 109 16
178 7 138 -4 229 -37 293 -18 36 -22 39 -51 33 -18 -3 -104 -10 -192 -16 -88
-5 -188 -15 -223 -20 -35 -6 -113 -13 -172 -16 -67 -3 -132 -12 -169 -24 -71
-22 -99 -17 -115 22 -15 34 -4 88 31 153 32 61 53 142 53 204 1 73 14 134 44
196 16 32 28 81 34 136 5 47 17 101 26 120 24 45 125 326 147 409 7 25 25 72
40 105 15 33 37 87 49 120 12 33 34 85 50 115 36 68 60 128 60 147 0 8 19 38
43 66 24 29 54 74 67 101 14 27 43 70 65 95 22 25 57 67 78 93 22 28 48 49 65
53 17 3 36 18 47 37 32 55 91 118 109 118 6 0 33 21 60 46 26 24 75 58 107 75
33 16 70 41 82 55 12 14 34 32 49 40 15 8 50 35 78 59 30 27 60 45 75 45 13 0
26 4 29 9 10 16 272 170 291 170 6 1 25 -8 43 -19z m4525 -2774 c18 -13 51
-27 75 -31 40 -6 71 -20 165 -74 21 -11 44 -21 53 -21 20 0 88 -35 121 -63 71
-58 73 -63 73 -129 0 -35 7 -84 15 -111 8 -27 15 -96 16 -159 2 -99 0 -113
-17 -125 -29 -22 -106 -10 -203 32 -61 26 -105 37 -160 42 -96 7 -191 44 -213
81 -16 27 -20 108 -22 422 -1 160 23 192 97 136z m-5624 -101 c16 -8 31 -22
35 -30 3 -9 1 -71 -5 -138 -6 -67 -9 -152 -5 -188 6 -64 5 -66 -27 -96 -49
-47 -65 -51 -176 -52 -56 0 -106 -3 -111 -6 -10 -6 -330 -38 -394 -39 -41 -1
-52 3 -68 25 -19 25 -19 32 -9 95 7 38 16 121 21 184 11 145 17 175 41 196 18
16 24 16 62 5 61 -19 155 -24 218 -12 30 6 101 18 158 27 57 8 118 21 135 29
41 18 91 18 125 0z m1849 -555 c92 -5 337 -14 545 -20 322 -8 395 -7 495 6
228 30 1221 15 1692 -25 135 -11 308 -21 386 -21 124 0 154 -4 260 -31 65 -17
155 -33 199 -36 44 -2 105 -13 135 -23 88 -29 201 -58 255 -65 28 -4 82 -20
120 -36 39 -16 90 -32 115 -35 25 -3 74 -16 110 -28 67 -25 103 -35 230 -65
41 -10 92 -26 113 -36 45 -21 87 -69 87 -98 0 -12 11 -39 25 -59 27 -40 34
-105 13 -126 -16 -16 -59 -15 -119 3 -27 8 -73 22 -101 31 -29 8 -76 26 -104
39 -33 16 -83 27 -140 33 -63 6 -110 18 -161 41 -39 17 -87 31 -106 31 -58 0
-134 18 -195 46 -34 16 -87 30 -132 35 -94 10 -219 32 -335 57 -61 13 -150 22
-275 26 -102 4 -232 11 -290 16 -58 5 -249 15 -424 20 -314 11 -469 5 -536
-20 -14 -5 -290 -12 -615 -15 -800 -7 -1192 -18 -1231 -33 -19 -8 -132 -16
-315 -22 -156 -6 -315 -12 -354 -15 -325 -23 -505 -38 -535 -47 -19 -5 -71
-13 -115 -18 -44 -5 -147 -16 -230 -25 -166 -18 -474 -25 -690 -15 -106 5
-149 4 -179 -6 -21 -8 -57 -14 -79 -14 -37 0 -108 -10 -222 -30 -78 -14 -259
-22 -273 -12 -8 5 -16 36 -19 69 -5 50 -2 66 21 111 14 28 26 56 26 62 0 23
80 84 150 113 103 43 146 52 270 53 69 1 202 7 295 13 419 26 497 31 605 41
63 5 142 15 175 21 33 5 94 14 135 18 41 5 111 14 155 20 44 6 168 16 275 22
173 9 405 28 615 49 39 4 78 8 88 9 11 0 94 -3 185 -9z m4135 -755 c12 -8 60
-28 106 -44 121 -43 126 -50 126 -167 0 -91 -1 -97 -26 -118 -49 -42 -65 -146
-23 -146 29 0 72 30 105 72 18 24 45 55 60 69 20 19 31 45 40 88 21 98 63 130
127 97 106 -55 91 -169 -43 -326 -43 -49 -80 -90 -84 -90 -4 0 -38 -28 -75
-62 -38 -35 -90 -72 -115 -83 -51 -22 -101 -58 -169 -122 -54 -51 -103 -65
-133 -37 -18 16 -20 27 -15 79 22 259 30 434 27 577 l-3 168 30 30 c35 35 35
35 65 15z m-6540 -15 c14 -11 33 -42 42 -69 21 -63 34 -302 35 -617 0 -238 0
-241 -23 -262 -22 -21 -24 -21 -47 -5 -14 9 -27 20 -30 24 -3 3 -21 14 -40 24
-19 10 -61 44 -93 76 -31 33 -61 59 -66 59 -15 0 -99 90 -124 133 -14 23 -41
60 -61 82 -20 21 -36 42 -36 47 0 4 -15 32 -34 61 -19 30 -38 71 -42 93 -3 21
-16 64 -27 94 -30 82 -27 155 8 208 16 23 40 45 53 49 28 7 113 -4 125 -16 12
-12 36 -126 37 -169 0 -36 28 -129 40 -137 15 -9 37 6 49 31 6 14 11 58 11 99
0 76 22 154 44 156 37 3 56 9 96 32 54 32 51 32 83 7z m1735 -130 c43 -6 75
-17 99 -36 19 -15 63 -40 97 -57 33 -17 75 -40 91 -53 17 -12 53 -32 82 -44
30 -13 55 -30 59 -42 3 -10 26 -29 50 -41 24 -11 44 -25 44 -29 0 -4 6 -8 13
-8 7 0 34 -19 59 -42 25 -24 67 -56 94 -73 27 -16 54 -33 59 -37 37 -30 88
-57 116 -63 19 -4 64 -22 102 -41 74 -37 107 -42 131 -18 30 30 11 99 -46 170
-13 16 -34 50 -47 75 -28 53 -24 87 14 125 30 30 51 23 70 -22 8 -19 29 -43
47 -54 18 -10 42 -33 52 -51 10 -17 32 -37 50 -44 17 -8 46 -25 65 -39 19 -14
51 -29 70 -32 20 -4 68 -22 106 -42 39 -19 78 -39 87 -43 10 -5 26 -9 37 -9
36 0 103 -30 142 -63 48 -42 123 -67 199 -67 46 0 70 -7 116 -31 56 -30 117
-40 143 -25 6 4 11 23 11 42 0 30 -9 44 -55 89 -30 30 -55 57 -55 60 0 8 -80
126 -102 149 -75 81 35 125 141 57 44 -28 52 -30 112 -25 55 6 78 2 156 -24
50 -17 118 -33 150 -37 32 -4 96 -18 143 -31 110 -31 423 -74 542 -74 74 0
226 -32 261 -54 54 -35 146 -28 166 13 4 9 5 77 2 151 -8 214 -7 245 13 274
20 32 30 28 57 -27 12 -23 39 -61 59 -83 47 -51 73 -101 65 -122 -7 -18 8 -96
41 -209 35 -122 54 -296 52 -473 -1 -166 11 -232 45 -238 10 -2 17 3 17 12 0
9 4 16 10 16 5 0 12 17 16 38 19 103 80 138 117 65 34 -66 39 -178 40 -928 l2
-740 -23 -85 c-27 -98 -60 -198 -71 -220 -4 -8 -16 -47 -26 -85 -9 -39 -23
-81 -30 -95 -19 -35 -45 -97 -45 -105 0 -3 -11 -30 -24 -59 -13 -29 -30 -73
-37 -97 -7 -24 -25 -66 -39 -94 -30 -55 -64 -150 -75 -205 -4 -19 -23 -56 -41
-81 -19 -26 -34 -58 -34 -72 0 -43 -65 -197 -82 -197 -5 0 -8 -4 -8 -10 0 -19
-55 -126 -92 -179 -21 -30 -38 -64 -38 -76 0 -14 -20 -39 -55 -70 -30 -26 -55
-53 -55 -61 0 -29 -33 -81 -67 -104 -19 -13 -43 -36 -52 -50 -39 -61 -86 -116
-112 -132 -16 -10 -29 -21 -29 -25 -1 -13 -94 -109 -118 -122 -13 -7 -28 -25
-33 -40 -5 -14 -34 -46 -65 -71 -55 -44 -71 -63 -157 -190 -59 -85 -137 -165
-190 -191 -23 -12 -44 -24 -47 -28 -22 -27 -51 -36 -143 -42 -182 -13 -451
-39 -477 -46 -14 -3 -150 -5 -303 -4 -269 3 -282 4 -390 31 -207 53 -310 95
-382 157 -21 18 -57 39 -80 45 -23 6 -61 31 -90 58 -27 26 -74 61 -104 79 -50
30 -236 182 -243 199 -2 5 -31 25 -66 46 -35 21 -66 45 -69 53 -3 7 -18 20
-33 28 -16 8 -58 43 -94 77 -144 139 -227 213 -246 222 -11 5 -20 13 -20 19 0
5 -31 41 -70 79 -38 39 -70 74 -70 79 0 5 -17 28 -39 52 -21 23 -46 58 -56 77
-10 19 -32 51 -50 71 -18 20 -42 63 -54 95 -12 33 -33 82 -45 109 -13 28 -26
68 -29 89 -4 21 -16 49 -27 61 -27 28 -36 70 -50 212 -8 85 -17 128 -41 184
-29 68 -32 87 -39 234 -8 145 -21 238 -49 350 -5 21 -13 80 -17 130 -3 49 -11
98 -16 108 -13 25 -55 22 -64 -5 -4 -13 -7 -109 -5 -215 3 -249 7 -243 -128
-243 -56 0 -102 -5 -108 -11 -6 -6 -37 -13 -69 -16 -48 -4 -63 -2 -79 13 -30
28 -55 70 -55 94 0 11 -4 28 -9 38 -17 30 -39 115 -51 187 -6 39 -15 96 -21
127 -5 32 -14 113 -19 180 -26 364 -32 413 -50 448 -15 29 -19 70 -25 235 l-7
200 26 38 c41 60 56 94 56 129 1 37 29 99 47 105 7 3 23 -13 37 -34 13 -21 36
-48 49 -60 14 -13 30 -43 36 -68 14 -55 39 -98 74 -125 14 -11 29 -29 32 -40
6 -20 63 -56 155 -101 30 -14 74 -45 96 -68 43 -42 65 -46 80 -13 4 9 9 96 12
192 4 189 -8 270 -63 417 -37 98 -57 224 -44 287 24 119 54 140 84 59 44 -119
98 -108 125 25 5 26 17 79 25 117 9 39 20 138 25 220 7 134 12 161 44 255 37
106 66 170 76 170 4 0 16 18 29 40 24 43 57 58 89 41 23 -12 71 -14 97 -5 8 4
30 27 46 51 17 25 45 51 63 59 36 15 134 18 224 4z m4512 -1853 c3 -270 2
-510 -2 -532 -16 -80 -18 -85 -38 -85 -41 0 -45 53 -45 580 0 453 1 498 18
534 l18 40 22 -22 c22 -23 22 -23 27 -515z m-5238 -2809 c31 -33 50 -62 88
-130 11 -20 28 -39 39 -43 11 -3 45 -37 75 -75 31 -38 66 -75 78 -81 24 -13
90 -80 120 -121 10 -16 48 -48 83 -73 35 -26 67 -55 70 -66 4 -10 10 -19 14
-19 4 0 41 -29 82 -63 41 -35 90 -71 110 -81 19 -9 55 -34 79 -56 24 -22 49
-40 55 -40 6 0 60 -34 120 -76 61 -41 129 -84 153 -94 24 -11 62 -36 85 -55
23 -20 62 -42 86 -48 26 -7 63 -29 91 -54 28 -25 60 -44 83 -48 39 -8 117 -58
117 -75 0 -6 6 -10 14 -10 7 0 24 -9 38 -19 13 -11 53 -34 88 -52 35 -18 79
-43 97 -55 19 -12 55 -30 81 -40 26 -10 70 -36 97 -59 28 -23 70 -52 95 -66
25 -13 61 -35 80 -49 19 -15 76 -52 126 -83 50 -31 99 -66 110 -78 10 -12 35
-30 54 -40 65 -36 108 -64 142 -91 18 -14 62 -37 98 -51 36 -13 81 -35 100
-48 20 -13 69 -37 110 -53 41 -16 98 -37 125 -48 36 -14 60 -33 88 -69 l39
-49 -22 -113 c-25 -123 -28 -130 -83 -202 -65 -85 -138 -217 -154 -280 -8 -33
-28 -77 -44 -97 -16 -20 -29 -49 -29 -65 0 -26 -24 -136 -49 -223 -5 -19 -21
-66 -35 -104 -14 -38 -26 -86 -26 -106 0 -21 -9 -58 -20 -83 -11 -25 -23 -74
-27 -109 -3 -36 -20 -95 -38 -138 -27 -62 -33 -92 -37 -175 -9 -170 -22 -178
-170 -104 -10 5 -23 9 -30 9 -6 0 -44 16 -85 35 -41 19 -76 35 -80 35 -3 0
-35 19 -72 43 -36 24 -83 50 -105 58 -28 10 -44 25 -62 58 -13 24 -53 73 -89
109 -36 36 -65 71 -65 78 0 7 -29 39 -64 70 -36 32 -67 67 -70 78 -5 19 -28
44 -116 130 -14 13 -38 43 -55 66 -16 24 -52 65 -79 93 -26 28 -60 69 -74 91
-14 23 -28 43 -32 46 -4 3 -15 20 -24 37 -9 18 -36 47 -61 65 -24 18 -55 53
-69 78 -14 25 -40 61 -59 80 -18 19 -53 64 -77 99 -23 35 -57 79 -74 96 -17
18 -47 51 -66 75 -19 23 -51 58 -71 78 -30 31 -68 87 -136 200 -7 12 -20 22
-28 22 -8 0 -15 4 -15 8 0 4 -15 25 -34 45 -18 20 -41 48 -50 61 -13 21 -62
74 -200 220 -16 17 -37 49 -47 71 -10 22 -35 56 -56 76 -21 20 -65 67 -98 105
-33 38 -71 78 -84 89 -45 38 -66 62 -106 120 -22 32 -67 89 -100 127 -33 39
-72 87 -86 108 -14 21 -41 51 -60 67 -56 46 -60 52 -71 89 -5 20 -29 57 -52
83 -56 60 -67 81 -68 136 0 35 7 58 32 98 25 40 34 68 39 119 6 58 11 72 39
101 28 28 34 43 37 90 4 54 18 98 55 182 10 22 24 58 31 80 33 107 80 183 112
184 11 1 33 -14 49 -31z m-474 -331 c31 -25 -14 -155 -72 -207 -20 -18 -36
-39 -36 -47 0 -7 -11 -36 -25 -65 -41 -85 -33 -195 24 -307 77 -151 102 -191
156 -249 22 -24 44 -51 49 -60 5 -10 27 -35 50 -57 22 -22 61 -69 86 -105 25
-35 61 -81 80 -101 19 -20 50 -54 68 -75 42 -50 114 -134 177 -208 28 -33 57
-69 65 -80 17 -25 45 -57 115 -134 28 -30 58 -69 69 -86 10 -17 43 -51 72 -76
30 -25 61 -56 68 -70 8 -14 32 -45 53 -70 22 -25 50 -61 63 -80 14 -19 40 -48
58 -64 18 -16 44 -48 58 -73 15 -24 34 -49 43 -56 10 -6 37 -39 61 -72 25 -33
68 -87 97 -119 29 -33 53 -65 53 -72 0 -7 26 -39 58 -72 54 -56 108 -118 165
-187 13 -16 31 -43 40 -60 8 -16 24 -39 34 -50 10 -11 32 -38 48 -60 17 -22
53 -62 81 -90 28 -27 63 -69 78 -93 15 -23 45 -59 67 -79 22 -20 49 -53 59
-74 11 -20 35 -50 54 -66 19 -15 64 -65 100 -110 37 -46 70 -83 74 -83 4 0 36
-34 72 -75 35 -42 73 -78 85 -81 13 -3 30 -23 43 -49 21 -44 51 -66 105 -79
19 -5 34 -19 48 -49 12 -23 45 -61 76 -85 29 -24 64 -60 77 -80 13 -20 43 -56
67 -80 24 -23 61 -59 82 -80 21 -20 45 -49 53 -65 8 -16 31 -34 53 -43 27 -11
43 -25 52 -47 17 -39 67 -97 85 -97 21 0 54 -37 54 -60 0 -23 106 -189 126
-197 8 -3 14 -10 14 -15 0 -6 17 -28 38 -49 88 -90 113 -128 136 -202 3 -9 22
-27 41 -38 20 -12 43 -35 51 -53 9 -17 29 -44 44 -61 15 -16 42 -57 60 -90 17
-33 46 -76 63 -95 18 -20 50 -62 72 -93 22 -32 57 -79 78 -104 20 -26 37 -52
37 -57 0 -5 53 -62 118 -125 120 -120 208 -219 228 -257 13 -24 108 -143 148
-184 13 -14 31 -38 39 -55 9 -16 26 -41 39 -55 35 -38 58 -77 58 -100 0 -11 7
-23 15 -27 17 -6 59 -63 99 -135 51 -92 106 -202 106 -213 0 -6 15 -25 34 -43
36 -34 101 -144 112 -189 4 -16 11 -33 16 -40 13 -17 48 -86 48 -95 0 -4 15
-40 34 -80 75 -161 96 -210 96 -225 0 -9 13 -37 29 -62 17 -26 36 -76 44 -116
8 -39 33 -111 56 -162 23 -50 41 -97 41 -104 0 -8 9 -43 20 -77 11 -35 20 -78
20 -96 0 -20 11 -47 30 -72 16 -21 30 -50 30 -64 1 -35 22 -106 49 -165 13
-27 32 -92 42 -142 11 -55 29 -109 44 -133 16 -25 29 -67 36 -112 6 -40 23
-116 39 -168 15 -52 33 -120 40 -150 6 -30 25 -89 41 -130 16 -41 30 -100 33
-130 2 -30 14 -89 26 -130 23 -77 34 -121 71 -275 12 -49 30 -121 40 -160 10
-38 19 -95 19 -125 1 -37 11 -80 31 -130 23 -59 32 -100 39 -190 5 -63 7 -133
4 -155 -4 -29 1 -53 18 -87 22 -44 23 -54 16 -140 -17 -209 -38 -288 -73 -288
-31 0 -39 45 -46 260 -4 118 -12 231 -18 250 -35 118 -42 154 -50 235 -8 82
-31 166 -53 189 -4 6 -8 19 -8 29 0 11 -13 45 -28 76 -16 31 -32 70 -36 86 -4
17 -20 57 -36 90 -16 33 -39 95 -50 137 -11 42 -36 106 -55 141 -19 35 -35 72
-35 81 0 10 -16 51 -35 92 -19 40 -35 78 -35 84 0 6 -13 38 -30 72 -16 33 -30
65 -30 72 -1 17 -82 176 -117 226 -16 25 -34 56 -38 70 -4 14 -22 45 -40 70
-18 25 -39 61 -48 81 -8 19 -40 60 -71 90 -31 29 -56 59 -56 65 0 6 -22 40
-50 74 -27 34 -50 68 -50 74 0 24 -53 87 -87 104 -21 10 -45 32 -55 52 -26 48
-64 80 -95 80 -40 0 -63 27 -63 74 0 23 -5 59 -11 81 -8 28 -12 266 -13 780
l-1 740 -30 -3 c-54 -4 -475 -2 -660 4 -197 7 -218 12 -228 63 -7 35 -43 71
-71 71 -27 0 -78 36 -103 74 -15 23 -35 36 -74 48 -30 10 -68 30 -85 45 -63
56 -105 87 -132 99 -34 14 -90 76 -98 110 -4 14 -1 89 6 168 7 79 10 154 7
168 -10 37 -69 58 -162 58 -63 0 -78 -3 -100 -23 -26 -22 -27 -24 -17 -87 9
-55 8 -69 -7 -95 -33 -59 -55 -50 -233 95 -20 17 -51 33 -68 37 -19 3 -51 25
-80 54 -27 27 -57 49 -66 49 -10 0 -40 17 -68 38 -64 48 -161 112 -169 112 -4
0 -36 20 -73 45 -36 25 -68 45 -70 45 -3 0 -20 11 -38 25 -18 14 -40 25 -49
25 -8 0 -28 10 -44 23 -15 13 -44 32 -63 43 -36 19 -144 87 -215 135 -22 14
-65 37 -95 50 -30 13 -59 28 -65 35 -18 21 -94 64 -113 64 -19 0 -104 55 -110
72 -2 4 -9 8 -15 8 -7 0 -70 29 -142 65 -71 36 -135 65 -141 65 -6 0 -17 7
-24 15 -7 8 -22 15 -34 15 -12 0 -27 5 -33 11 -17 17 -170 60 -243 69 -36 4
-94 17 -130 29 -82 28 -245 50 -375 51 -70 0 -106 5 -119 15 -14 11 -23 43
-37 132 -20 128 -27 159 -58 272 -12 41 -21 89 -21 106 0 16 -12 47 -26 68
-14 21 -28 55 -31 75 -7 48 -29 109 -73 202 -20 41 -42 91 -50 110 -7 19 -19
42 -25 50 -7 8 -23 42 -35 76 -12 33 -35 76 -51 95 -16 19 -35 52 -41 74 -6
22 -17 47 -24 55 -6 8 -35 60 -64 115 -28 55 -60 109 -70 120 -10 11 -32 47
-50 80 -18 33 -36 64 -41 69 -5 6 -9 18 -9 27 0 9 -18 39 -40 65 -22 27 -45
67 -51 89 -19 68 -32 99 -49 120 -15 18 -70 149 -70 167 0 4 -11 31 -24 60
-30 66 -80 223 -95 303 -7 33 -19 91 -27 130 -30 140 -3 515 46 640 4 11 15
39 24 63 9 23 23 59 31 80 8 20 17 60 21 87 6 47 33 110 61 145 6 8 31 53 54
100 52 105 99 177 133 209 14 14 26 29 26 35 0 6 25 36 56 66 31 30 67 71 80
92 15 24 41 44 76 60 29 14 69 42 88 62 39 43 85 66 130 66 28 0 67 16 80 31
3 4 23 16 45 28 40 22 76 21 103 -2z m4572 -123 c6 -19 9 -46 6 -62 -4 -15
-10 -147 -16 -294 -9 -258 -10 -268 -34 -315 -14 -26 -26 -60 -26 -76 0 -83
-134 -386 -206 -465 -65 -71 -65 -71 -90 -119 -24 -45 -41 -61 -127 -127 -26
-20 -61 -49 -77 -64 -37 -36 -90 -52 -169 -52 -56 0 -64 3 -100 36 -22 19 -57
40 -77 46 -42 11 -114 54 -114 67 0 5 -30 14 -67 21 -75 12 -148 43 -157 65
-9 24 -84 65 -117 65 -23 0 -45 12 -86 50 -30 28 -62 50 -71 50 -24 0 -79 36
-117 76 -18 19 -37 34 -43 34 -6 0 -15 6 -19 14 -4 7 -26 23 -48 34 -22 11
-50 30 -62 41 -12 12 -25 21 -29 21 -3 0 -19 11 -35 25 -16 13 -55 32 -87 42
-102 31 -174 95 -142 127 17 17 167 11 315 -14 131 -21 264 -21 324 2 26 9 71
13 384 28 l209 11 81 39 c45 22 89 40 98 40 39 0 209 157 260 240 40 67 117
160 133 160 22 1 101 83 121 125 12 25 39 57 65 77 25 19 47 43 48 53 2 11 11
28 20 37 19 23 37 10 52 -38z m131 -941 c7 -18 12 -141 13 -333 2 -273 5 -314
24 -390 19 -78 41 -187 57 -285 4 -22 18 -67 31 -100 15 -37 29 -98 36 -160 9
-86 15 -108 45 -157 31 -49 36 -68 43 -156 7 -75 15 -113 34 -149 14 -26 32
-86 41 -133 9 -47 27 -110 40 -140 13 -30 29 -77 35 -105 6 -27 26 -95 44
-150 40 -118 51 -190 37 -228 -16 -42 -48 -35 -105 23 -27 28 -52 50 -56 50
-16 0 -139 162 -150 197 -7 21 -23 53 -37 71 -17 22 -26 50 -29 88 -2 31 -17
110 -33 177 -41 173 -51 224 -51 258 0 18 -12 45 -29 67 -15 20 -38 68 -50
106 -12 38 -31 82 -41 97 -11 15 -20 31 -20 36 0 6 -9 18 -19 27 -11 10 -41
57 -68 104 -31 56 -61 95 -85 111 -23 16 -43 42 -53 68 -9 23 -31 54 -48 68
-18 14 -38 30 -44 36 -7 5 -13 20 -13 32 0 12 -12 44 -26 71 -24 44 -25 53
-15 88 10 31 23 46 72 76 34 21 65 49 73 67 8 17 31 45 50 64 23 22 41 53 51
85 10 36 23 57 44 71 38 25 45 39 70 155 40 179 102 269 132 193z m5465 -486
c57 -9 93 -21 120 -39 29 -20 60 -30 123 -37 57 -7 110 -22 165 -47 44 -19
108 -44 141 -53 33 -10 114 -40 180 -66 66 -26 164 -63 217 -81 85 -30 145
-60 185 -94 6 -5 44 -21 84 -34 40 -13 92 -39 117 -56 25 -17 61 -34 80 -37
22 -4 50 -21 79 -50 25 -24 57 -46 71 -49 15 -4 45 -25 67 -46 22 -22 56 -48
75 -58 98 -52 116 -97 91 -225 -10 -48 -24 -91 -32 -96 -45 -28 -133 7 -164
66 -22 40 -28 45 -141 108 -38 21 -76 42 -84 47 -8 5 -46 25 -85 45 -38 20
-77 43 -85 50 -20 18 -231 117 -275 129 -11 4 -35 20 -54 36 -34 30 -42 33
-115 45 -21 4 -56 17 -77 31 -21 13 -43 24 -49 24 -6 0 -18 4 -28 9 -9 5 -37
14 -62 21 -25 6 -79 27 -120 45 -41 18 -96 36 -122 39 -26 4 -58 16 -71 27
-14 10 -32 19 -41 19 -9 0 -16 4 -16 9 0 4 -29 11 -64 13 -35 3 -78 13 -95 22
-17 9 -43 22 -58 30 -16 8 -57 17 -93 21 -88 8 -113 26 -107 73 8 59 23 104
47 146 26 43 9 42 196 13z m-5158 -104 c12 -10 33 -43 48 -73 15 -30 46 -76
70 -101 25 -27 48 -65 55 -90 7 -26 31 -64 56 -91 24 -26 43 -55 43 -64 0 -9
34 -49 75 -89 41 -39 75 -76 75 -83 0 -6 22 -35 50 -64 27 -29 53 -63 56 -76
4 -13 49 -67 100 -120 52 -53 94 -100 94 -105 0 -5 11 -23 25 -41 14 -18 25
-38 25 -44 0 -7 3 -12 8 -13 4 0 30 -29 57 -65 28 -35 78 -94 111 -129 34 -36
71 -85 83 -109 11 -24 41 -63 66 -87 25 -23 45 -51 45 -61 0 -21 43 -67 81
-87 27 -13 49 -49 49 -77 0 -8 8 -27 17 -42 16 -26 31 -44 90 -108 15 -17 48
-57 73 -90 25 -32 66 -80 91 -105 26 -25 56 -63 67 -85 22 -42 192 -239 247
-286 11 -9 38 -38 60 -63 22 -26 54 -54 72 -63 52 -27 218 -184 238 -224 17
-36 18 -63 12 -470 -5 -371 -9 -450 -27 -551 -11 -65 -20 -135 -20 -155 0 -20
-9 -56 -20 -80 -10 -23 -24 -70 -30 -105 -5 -34 -14 -78 -19 -97 -21 -81 -54
-197 -62 -217 -5 -13 -11 -53 -15 -90 -4 -39 -15 -82 -26 -101 -11 -18 -26
-63 -34 -100 -14 -72 -27 -119 -54 -197 -16 -48 -22 -71 -55 -235 -33 -163
-46 -217 -64 -255 -22 -48 -43 -109 -67 -188 -10 -34 -27 -66 -41 -76 -26 -21
-53 -78 -53 -113 0 -13 -6 -34 -13 -48 -26 -50 -27 -74 -5 -138 20 -57 25 -63
59 -72 20 -6 42 -17 49 -25 7 -8 18 -15 25 -15 7 0 27 -14 45 -31 30 -29 32
-35 28 -83 -3 -33 -14 -66 -32 -95 -20 -31 -33 -74 -47 -150 -10 -58 -32 -148
-49 -200 -16 -52 -30 -102 -30 -111 0 -9 -9 -50 -21 -91 -11 -41 -28 -103 -38
-139 -10 -36 -25 -81 -33 -100 -9 -19 -19 -51 -22 -70 -16 -98 -37 -185 -66
-269 -18 -54 -34 -124 -37 -165 -4 -63 -19 -126 -44 -193 -12 -33 -45 -29 -64
7 -14 28 -14 38 1 113 15 70 18 167 22 677 4 637 0 715 -44 931 -18 91 -27
168 -30 289 -5 128 -11 184 -29 250 -31 115 -43 204 -49 340 -4 76 -13 139
-27 185 -30 99 -38 145 -48 265 -9 101 -34 238 -51 270 -12 25 -30 168 -33
281 -3 97 -6 109 -30 141 -22 29 -27 45 -27 94 0 32 -9 129 -21 214 -11 85
-24 182 -28 215 -3 33 -11 67 -16 75 -6 8 -13 53 -17 100 -7 88 -12 112 -48
245 -12 44 -24 116 -27 160 -4 51 -15 99 -30 133 -12 29 -23 70 -23 91 0 25
-22 93 -61 188 -34 81 -67 173 -74 203 -22 91 -56 183 -81 216 -13 17 -31 62
-40 100 -10 38 -30 88 -44 111 -15 24 -30 64 -33 91 -3 27 -19 75 -35 108 -17
32 -38 91 -47 129 -9 39 -29 97 -45 130 -38 80 -55 122 -70 170 -7 22 -28 72
-46 111 -44 92 -62 152 -74 244 -12 90 -32 182 -70 310 -15 52 -31 113 -35
135 -4 22 -11 45 -17 52 -5 7 -12 41 -15 75 -6 91 -9 101 -43 143 -25 31 -30
47 -30 92 0 53 12 93 29 93 5 0 18 -8 29 -17z m4137 -139 c57 -5 94 -14 130
-32 41 -22 60 -26 122 -24 77 2 216 -24 300 -56 26 -11 84 -22 128 -26 59 -5
100 -16 156 -42 50 -22 92 -34 120 -34 30 0 66 -11 115 -35 46 -23 92 -37 130
-41 43 -5 70 -14 98 -35 22 -16 50 -29 62 -29 19 0 61 -14 119 -40 11 -5 63
-25 115 -45 52 -20 114 -46 138 -56 23 -11 57 -22 75 -25 33 -7 107 -51 107
-65 0 -4 15 -10 33 -14 45 -9 119 -36 137 -50 20 -16 90 -55 178 -100 40 -21
83 -48 95 -61 12 -13 40 -29 62 -35 22 -6 64 -33 98 -62 162 -144 166 -150
118 -197 -29 -30 -31 -30 -138 -29 -59 0 -210 4 -335 8 -212 8 -229 10 -265
31 -23 14 -64 27 -103 31 -124 15 -195 28 -270 53 -41 13 -108 29 -148 35 -48
8 -85 20 -105 35 -20 15 -52 26 -88 30 -31 3 -88 19 -127 35 -39 16 -97 35
-129 41 -32 7 -87 27 -123 45 -88 45 -167 76 -215 85 -22 4 -77 26 -122 48
-44 23 -83 42 -86 42 -3 0 -53 23 -111 50 -58 28 -116 50 -128 50 -11 0 -41
16 -65 36 -24 20 -67 44 -94 54 -28 11 -65 30 -82 43 -18 13 -50 33 -73 45
-22 11 -63 41 -91 66 -28 25 -56 46 -62 46 -6 0 -31 10 -56 22 -38 19 -47 28
-56 63 -5 22 -15 52 -21 68 -14 35 7 61 60 75 37 11 250 8 397 -4z m-10396
-82 c11 -10 18 -45 23 -109 4 -63 13 -106 26 -131 11 -20 27 -50 35 -67 9 -16
27 -68 42 -115 14 -47 40 -106 57 -132 16 -26 36 -68 44 -94 7 -25 27 -70 44
-99 16 -29 30 -58 30 -66 0 -7 17 -40 39 -73 41 -64 49 -80 101 -189 18 -37
39 -72 47 -79 20 -16 63 -103 63 -126 0 -10 16 -33 35 -52 19 -18 40 -50 46
-69 6 -20 31 -68 54 -107 23 -39 52 -98 64 -132 12 -34 40 -95 62 -136 21 -40
39 -80 39 -87 0 -8 15 -43 33 -79 25 -49 35 -83 40 -137 3 -40 10 -81 16 -91
36 -67 82 -315 80 -423 -2 -74 1 -91 20 -122 27 -43 39 -47 157 -52 155 -5
397 -34 529 -63 50 -11 114 -23 144 -27 63 -9 129 -30 221 -72 36 -17 85 -38
110 -48 25 -9 50 -20 55 -25 6 -4 46 -27 90 -50 44 -23 85 -46 91 -51 24 -20
163 -89 179 -89 9 0 37 -20 61 -44 25 -24 55 -48 67 -53 95 -44 166 -83 201
-113 44 -38 106 -70 135 -70 10 0 37 -18 62 -41 24 -22 62 -48 84 -58 22 -10
61 -35 88 -55 26 -20 53 -36 60 -36 6 0 46 -25 87 -56 41 -31 93 -65 115 -76
22 -12 54 -31 70 -43 17 -12 50 -32 75 -45 25 -12 60 -37 78 -56 18 -19 37
-34 41 -34 5 0 29 -17 54 -37 25 -21 80 -56 122 -78 43 -22 84 -50 92 -62 12
-18 28 -132 44 -309 4 -40 -2 -54 -31 -69 -25 -13 -119 -15 -710 -15 -526 0
-685 -3 -702 -12 -42 -24 -49 -40 -43 -98 9 -75 8 -1979 0 -2051 -13 -115 -4
-119 250 -114 105 2 399 3 655 2 256 0 544 1 640 3 144 4 470 4 810 1 33 0 86
0 118 1 31 1 199 -1 372 -5 173 -5 323 -8 333 -8 9 0 25 7 34 16 14 14 15 35
10 157 -5 114 -3 146 9 169 23 45 40 40 94 -31 19 -25 39 -48 43 -51 5 -4 22
-35 37 -69 18 -41 38 -69 58 -82 17 -10 42 -38 55 -61 14 -23 43 -57 66 -75
23 -18 41 -41 41 -51 0 -29 25 -82 58 -124 17 -21 45 -73 62 -115 38 -93 77
-171 96 -193 8 -8 14 -20 14 -25 0 -5 14 -36 30 -69 16 -33 30 -69 30 -81 0
-29 16 -76 56 -162 40 -88 104 -275 104 -306 0 -13 9 -31 21 -42 28 -25 49
-67 49 -97 0 -13 14 -51 30 -84 21 -43 34 -90 44 -162 8 -56 19 -108 24 -114
30 -37 43 -125 43 -292 -1 -173 9 -258 36 -330 26 -68 33 -106 42 -230 7 -87
16 -140 35 -191 33 -89 32 -112 0 -254 -23 -96 -32 -120 -58 -146 l-31 -31
-259 -6 c-143 -4 -313 -7 -378 -7 -101 0 -125 -3 -160 -21 -27 -14 -52 -19
-73 -16 -34 5 -52 -3 -117 -55 -79 -64 -188 -181 -188 -203 0 -5 -12 -28 -28
-52 -33 -54 -77 -71 -138 -54 -23 6 -51 20 -64 31 -13 11 -35 23 -49 27 -14 3
-58 24 -98 45 -39 21 -77 38 -83 38 -7 0 -44 15 -83 34 -172 81 -275 104 -427
94 -63 -4 -131 -4 -150 -1 -77 12 -120 61 -120 137 0 17 -6 43 -14 58 -8 14
-19 48 -25 75 -5 26 -23 73 -39 103 -16 30 -32 75 -36 99 -9 58 -101 258 -136
296 -16 18 -19 42 -22 215 -5 226 -18 284 -75 327 -19 15 -43 45 -53 69 -11
23 -38 56 -62 75 -24 18 -56 45 -73 61 -16 16 -52 47 -79 68 -46 36 -62 45
-152 88 -21 9 -51 31 -68 47 -17 17 -43 35 -58 42 -29 13 -81 77 -104 128 -7
17 -37 50 -65 75 -28 25 -84 77 -124 115 -218 209 -311 298 -391 372 -125 116
-130 122 -180 183 -25 30 -51 75 -58 101 -15 49 -31 82 -57 114 -9 11 -27 51
-40 90 -13 38 -39 92 -57 119 -18 26 -35 60 -38 75 -17 85 -39 148 -56 161 -3
3 -13 32 -21 65 -8 33 -20 74 -26 90 -23 63 -73 243 -86 311 -8 40 -23 87 -34
105 -18 30 -21 51 -21 165 0 141 -11 194 -40 194 -19 0 -31 -25 -50 -105 -19
-79 -30 -103 -52 -108 -28 -8 -57 27 -91 109 -42 103 -59 135 -88 169 -14 16
-34 44 -43 60 -9 17 -22 39 -29 50 -92 150 -81 138 -243 301 -134 136 -170
164 -215 164 -59 0 5 -100 200 -315 16 -16 42 -61 60 -100 18 -38 43 -81 56
-95 26 -29 45 -64 75 -140 13 -30 31 -67 41 -82 11 -14 19 -30 19 -35 0 -9 31
-72 65 -133 25 -45 63 -144 69 -181 3 -20 21 -53 40 -75 37 -43 79 -123 121
-228 15 -38 35 -77 43 -87 15 -18 42 -97 61 -179 5 -19 20 -57 33 -85 48 -95
53 -119 34 -159 -21 -45 -40 -55 -119 -64 -82 -11 -139 -47 -170 -110 -33 -65
-38 -108 -22 -206 14 -88 29 -126 64 -163 51 -54 1 -90 -127 -92 -47 -1 -57
-5 -96 -41 -24 -22 -48 -40 -54 -40 -16 0 -96 -81 -109 -110 -30 -69 -38 -101
-38 -170 0 -59 5 -85 24 -124 25 -50 86 -117 156 -171 51 -39 83 -73 90 -96 6
-19 -34 -110 -62 -141 -9 -10 -25 -18 -36 -18 -35 0 -122 49 -140 79 -9 16
-45 45 -80 64 -56 32 -129 91 -211 172 -17 17 -43 37 -58 44 -16 8 -35 26 -45
40 -23 37 -100 109 -147 139 -23 14 -52 36 -66 49 -14 12 -45 29 -68 37 -24 9
-58 31 -76 51 -27 29 -41 35 -74 35 -33 0 -40 -4 -44 -22 -6 -37 2 -57 30 -73
35 -18 153 -132 176 -170 11 -16 31 -39 45 -50 36 -27 168 -164 189 -195 37
-56 159 -182 197 -204 22 -13 54 -39 72 -57 33 -35 83 -78 168 -147 28 -23 60
-50 73 -61 12 -12 25 -21 27 -21 18 0 144 -98 217 -167 78 -76 120 -117 247
-248 48 -51 69 -91 82 -162 14 -74 49 -149 92 -196 19 -21 43 -59 52 -85 24
-63 26 -65 112 -113 69 -38 83 -41 167 -46 55 -3 138 1 211 11 75 10 193 16
321 16 197 0 202 -1 250 -26 27 -14 53 -30 59 -35 5 -5 17 -9 27 -9 10 0 49
-30 87 -67 38 -38 74 -72 80 -78 6 -5 23 -25 37 -43 14 -17 32 -32 39 -32 7 0
15 -6 18 -14 3 -8 22 -22 41 -31 36 -17 56 -54 56 -104 0 -41 -24 -66 -87 -91
-32 -13 -69 -32 -82 -42 -13 -10 -31 -18 -40 -18 -10 0 -26 -8 -37 -17 -42
-38 -103 -83 -112 -83 -5 0 -32 -22 -60 -49 -28 -27 -66 -59 -83 -72 -18 -13
-48 -41 -68 -63 -48 -56 -162 -166 -171 -166 -4 0 -11 -12 -14 -26 -4 -14 -26
-47 -50 -72 -24 -26 -57 -74 -73 -107 -17 -33 -39 -76 -50 -95 -31 -56 -35
-76 -42 -265 -7 -167 -10 -187 -39 -269 -18 -49 -32 -102 -32 -117 0 -40 -17
-74 -77 -155 -29 -39 -53 -74 -53 -79 0 -4 -14 -23 -30 -42 -47 -54 -38 -83
28 -83 19 0 45 17 86 55 32 30 62 55 66 55 4 0 15 15 23 33 9 17 36 56 61 85
25 30 49 66 52 80 4 15 23 57 42 94 23 44 36 85 39 120 2 30 14 70 28 96 22
39 25 56 25 148 0 125 19 184 85 264 25 30 54 73 65 95 12 24 41 56 72 79 29
22 56 44 60 51 13 21 73 80 117 114 24 19 57 56 73 83 20 32 39 50 56 54 39
10 125 54 142 74 8 9 44 32 80 51 36 19 67 37 70 41 3 4 21 14 40 22 19 8 55
33 79 55 24 23 51 41 61 41 9 0 48 23 85 50 37 28 74 50 81 50 7 0 19 6 26 14
18 18 106 56 129 56 11 0 19 5 19 10 0 6 12 10 28 10 15 0 58 8 97 17 65 16
74 16 151 0 45 -9 90 -17 101 -17 22 0 112 -35 256 -99 27 -12 74 -31 105 -43
32 -11 75 -34 96 -51 21 -17 57 -36 78 -44 22 -7 56 -25 76 -38 20 -14 44 -25
53 -25 9 0 23 -7 30 -16 20 -25 79 -59 124 -74 102 -33 146 -75 180 -170 7
-21 25 -56 39 -79 14 -22 26 -50 26 -60 0 -35 51 -115 106 -165 30 -26 54 -52
54 -57 0 -5 47 -56 105 -114 57 -59 112 -118 121 -133 30 -52 197 -150 221
-130 27 22 9 129 -28 169 -31 33 -80 100 -110 151 -33 55 -64 96 -137 176 -85
93 -198 281 -213 353 -5 30 -17 77 -26 106 -15 50 -18 53 -67 69 -82 27 -157
64 -163 81 -3 8 4 35 16 59 11 25 21 50 21 58 0 7 9 21 20 31 11 10 20 23 20
28 0 31 187 157 233 157 7 0 57 -19 112 -41 108 -44 347 -119 381 -119 11 0
38 -13 60 -29 21 -16 55 -32 74 -36 19 -4 62 -20 96 -36 33 -15 73 -31 89 -35
31 -8 56 -20 96 -47 14 -9 52 -28 85 -41 32 -12 77 -35 98 -49 21 -15 51 -27
66 -27 15 0 45 -12 66 -28 45 -31 88 -52 110 -52 9 0 34 -13 57 -29 23 -15 58
-32 77 -36 40 -8 87 -31 112 -52 9 -9 48 -22 85 -29 45 -10 76 -23 94 -40 15
-14 46 -30 70 -35 24 -5 64 -24 88 -41 41 -29 46 -30 70 -17 20 11 27 24 29
56 4 53 -25 83 -79 83 -44 0 -82 15 -121 46 -15 12 -43 25 -63 28 -37 7 -179
78 -245 122 -19 13 -40 24 -45 24 -11 0 -38 13 -160 80 -38 22 -100 54 -136
73 -36 19 -88 50 -117 70 -29 19 -69 41 -89 47 -21 7 -63 27 -93 45 -30 18
-80 41 -110 50 -100 32 -150 54 -150 65 0 28 83 49 215 55 69 3 140 13 190 27
74 21 96 22 285 18 273 -6 290 -6 475 3 157 8 210 17 350 57 38 11 99 20 134
20 35 0 93 7 130 15 103 22 372 56 522 65 120 7 143 11 207 39 45 20 101 35
146 40 53 6 94 19 142 43 115 58 184 57 223 -5 11 -18 38 -49 61 -71 22 -21
40 -44 40 -51 0 -8 15 -23 33 -34 27 -17 88 -77 133 -132 26 -31 96 -89 107
-89 12 0 66 -67 95 -117 7 -13 28 -29 46 -37 22 -9 46 -33 69 -68 19 -29 46
-64 61 -77 14 -14 26 -31 26 -38 0 -22 35 -94 75 -154 19 -30 38 -63 42 -74 3
-11 16 -36 28 -55 28 -46 72 -156 79 -199 4 -19 12 -42 20 -50 17 -21 36 -77
36 -110 0 -14 21 -80 46 -146 66 -172 84 -232 84 -274 0 -20 5 -42 11 -48 6
-6 19 -42 29 -79 10 -38 29 -94 43 -124 14 -30 28 -80 32 -110 4 -30 22 -88
41 -128 22 -46 38 -99 43 -143 5 -38 16 -81 25 -94 9 -13 16 -36 16 -50 0 -14
17 -73 39 -133 44 -123 101 -313 101 -336 0 -8 14 -37 30 -63 17 -26 30 -58
30 -72 0 -38 25 -160 43 -206 8 -22 33 -89 56 -149 22 -60 41 -117 41 -126 0
-10 7 -23 16 -31 24 -20 44 -65 44 -99 0 -17 16 -72 36 -123 50 -126 67 -298
61 -602 -5 -226 -10 -260 -51 -310 -9 -11 -27 -40 -39 -65 -17 -35 -36 -52
-87 -82 -39 -22 -84 -39 -115 -43 -76 -10 -161 -33 -206 -57 -39 -20 -49 -21
-362 -15 -218 4 -335 10 -362 19 -29 9 -121 12 -325 12 -281 0 -404 -8 -630
-39 -63 -9 -140 -20 -170 -24 -30 -4 -69 -15 -86 -24 -17 -9 -79 -21 -138 -27
-95 -10 -136 -19 -211 -50 -35 -14 -137 -30 -195 -30 -44 0 -64 -5 -85 -22
-43 -34 -267 -47 -763 -47 -408 1 -413 0 -455 -22 -30 -15 -64 -23 -117 -25
-41 -2 -96 -8 -122 -14 -27 -5 -105 -10 -175 -11 -97 -1 -142 -6 -185 -20 -50
-17 -88 -19 -311 -19 -233 0 -257 -2 -295 -20 -35 -17 -61 -20 -184 -20 -140
0 -220 -10 -433 -56 -106 -23 -704 -24 -760 -2 -123 49 -154 58 -195 58 -50 0
-210 39 -250 60 -14 8 -65 17 -115 20 -49 4 -107 14 -128 23 -34 15 -37 19
-27 37 18 33 105 71 189 81 116 13 162 23 215 47 27 12 74 25 105 27 78 8 154
24 240 52 40 14 119 28 175 33 105 10 132 15 256 49 51 14 121 23 220 27 135
5 184 12 350 50 39 9 160 18 305 23 205 7 254 12 340 34 127 32 151 35 374 47
102 5 189 14 195 20 5 5 22 10 37 10 15 0 30 4 33 9 8 12 47 18 221 35 107 11
170 22 218 40 39 14 101 28 145 31 77 6 253 43 262 56 10 14 87 29 145 29 45
0 75 7 121 29 39 18 88 32 130 36 103 11 193 33 225 57 21 16 50 23 106 28 56
5 97 16 143 37 41 19 90 33 135 38 50 5 88 17 134 41 43 23 78 34 105 34 72 0
108 46 73 95 -11 14 -21 16 -43 11 -16 -4 -59 -12 -96 -17 -38 -5 -83 -18
-100 -29 -57 -35 -79 -41 -181 -50 -60 -6 -109 -16 -121 -25 -12 -8 -31 -22
-44 -31 -16 -12 -57 -19 -134 -24 -68 -5 -114 -12 -116 -19 -2 -6 -9 -11 -15
-11 -6 0 -19 -7 -28 -16 -13 -11 -57 -21 -141 -30 -95 -10 -135 -19 -175 -39
-44 -22 -73 -28 -176 -35 -125 -9 -140 -12 -225 -51 -37 -17 -75 -23 -178 -29
-71 -3 -136 -10 -142 -14 -6 -4 -44 -13 -84 -21 -40 -8 -93 -19 -118 -24 -25
-6 -119 -14 -210 -17 -91 -4 -174 -11 -184 -17 -37 -18 -329 -47 -686 -67
-102 -5 -203 -15 -225 -20 -77 -20 -282 -42 -455 -49 -125 -6 -198 -14 -255
-29 -123 -32 -241 -52 -309 -52 -61 0 -110 -11 -221 -50 -35 -12 -100 -23
-155 -27 -94 -6 -95 -6 -130 -45 -21 -22 -45 -38 -58 -38 -52 0 -277 -75 -389
-129 -23 -12 -55 -21 -71 -21 -27 0 -58 -18 -106 -62 -11 -10 -25 -18 -30 -18
-19 0 -111 -46 -129 -64 -9 -10 -44 -28 -77 -41 -69 -27 -129 -62 -204 -120
-28 -22 -69 -49 -90 -60 -20 -10 -48 -31 -60 -46 -41 -49 -47 -50 -338 -46
-265 4 -275 5 -348 30 -41 15 -87 36 -102 47 -15 11 -30 20 -34 20 -3 0 -20 6
-37 14 -150 67 -192 90 -220 120 -19 20 -50 39 -74 45 -23 7 -46 18 -50 25 -4
7 -28 27 -53 44 -43 31 -75 56 -150 122 -19 16 -37 30 -40 30 -4 0 -48 48
-100 108 -51 59 -110 123 -130 142 -20 19 -50 55 -65 80 -36 57 -85 118 -155
191 -30 31 -73 80 -95 109 -22 28 -45 57 -50 63 -36 40 -64 86 -70 112 -4 17
-27 50 -50 75 -25 26 -54 71 -68 107 -14 34 -36 74 -49 88 -14 14 -32 48 -42
76 -10 28 -29 57 -41 65 -13 8 -31 32 -41 52 -31 67 -87 146 -151 214 -35 36
-63 72 -63 80 0 19 -40 92 -56 101 -16 9 -98 116 -118 154 -8 15 -40 57 -71
93 -58 66 -69 85 -79 132 -4 18 -20 34 -48 50 -32 18 -46 34 -62 73 -11 28
-25 55 -31 61 -50 54 -74 84 -79 102 -4 12 -26 45 -49 74 -45 57 -62 80 -103
143 -14 22 -31 45 -38 50 -12 11 -126 189 -126 198 0 2 -13 19 -30 37 -16 18
-30 37 -30 44 0 6 -25 43 -55 81 -31 38 -66 92 -79 120 -14 27 -36 60 -51 73
-14 13 -39 49 -54 80 -15 31 -44 75 -64 96 -20 22 -37 44 -37 49 0 17 -54 120
-72 139 -10 9 -31 45 -48 79 -31 61 -86 145 -120 184 -10 11 -27 52 -39 90
-14 44 -35 85 -57 110 -19 22 -44 60 -56 85 -12 25 -36 69 -55 98 -18 29 -33
57 -33 62 0 16 -57 128 -73 144 -8 9 -27 47 -42 85 -14 39 -40 87 -56 107 -16
20 -29 45 -29 55 0 10 -13 46 -29 81 -16 35 -44 99 -62 143 -19 44 -51 109
-71 145 -21 36 -38 74 -38 85 -1 32 -48 157 -70 185 -32 40 -58 93 -65 133 -4
20 -11 37 -16 37 -5 0 -9 7 -9 15 0 14 -6 29 -51 130 -12 28 -29 73 -39 100
-10 28 -29 72 -44 99 -14 27 -26 57 -26 66 0 10 -13 49 -29 86 -40 98 -105
268 -129 339 -11 33 -34 86 -51 119 -17 32 -31 68 -31 80 0 12 -10 42 -21 67
-12 24 -32 76 -44 114 -13 39 -39 104 -59 145 -24 49 -36 89 -36 116 0 33 -7
51 -35 84 -19 23 -37 57 -40 78 -11 62 -66 195 -100 242 -23 30 -64 139 -70
186 -4 27 -20 68 -36 92 -15 24 -31 58 -35 75 -6 28 -70 180 -148 349 -15 32
-31 80 -36 108 -5 28 -14 58 -19 68 -5 9 -12 46 -16 82 -4 36 -18 90 -32 120
-14 31 -30 100 -39 158 -14 103 -28 142 -52 142 -28 0 -34 -54 -30 -251 l5
-196 30 -44 c29 -40 32 -52 36 -144 3 -75 10 -116 29 -165 37 -95 38 -98 58
-180 11 -41 34 -118 53 -170 59 -162 106 -284 117 -302 5 -10 10 -23 10 -30 0
-6 20 -44 45 -84 48 -76 54 -104 30 -124 -36 -30 -124 13 -125 61 0 9 -22 34
-48 56 -27 23 -68 69 -93 103 -24 34 -56 77 -71 95 -16 18 -28 35 -28 38 0 4
-17 33 -39 66 -21 33 -44 81 -50 107 -7 26 -21 64 -31 85 -11 21 -20 48 -20
59 0 26 -45 163 -65 199 -25 45 -95 240 -95 265 0 13 -9 35 -20 49 -11 14 -27
60 -35 104 -9 43 -27 110 -41 148 -19 52 -28 105 -35 205 -8 96 -16 146 -30
175 -17 36 -19 64 -19 298 0 235 2 261 19 296 17 33 20 68 26 307 3 148 10
296 15 329 5 33 11 180 14 326 2 168 8 274 15 287 6 11 11 51 11 89 0 37 7
133 15 213 8 80 15 168 15 197 0 34 8 66 23 95 18 34 26 74 36 183 27 294 40
379 60 420 12 21 21 50 21 63 0 24 69 173 94 202 7 8 20 40 30 71 9 30 37 82
61 115 25 32 45 69 45 80 0 28 32 67 74 94 23 14 37 31 42 53 8 37 27 67 104
158 30 36 71 87 90 113 19 26 43 55 53 64 61 58 82 83 109 130 17 29 47 67 68
83 20 17 43 42 51 57 22 43 68 95 120 138 8 7 25 25 39 40 14 16 50 52 80 79
30 28 80 77 110 110 31 33 66 67 78 75 12 8 22 20 22 26 0 6 33 43 73 82 39
39 90 93 112 120 22 28 55 58 73 68 17 10 32 22 32 26 0 9 15 23 91 83 35 28
93 78 130 112 36 34 85 71 108 82 22 12 48 32 56 45 9 13 32 32 50 41 20 9 51
39 72 70 21 30 50 59 65 66 26 11 98 98 98 118 0 24 193 229 257 275 23 15 46
38 53 51 7 12 31 33 54 45 22 13 59 40 82 60 36 33 48 38 113 44 41 4 85 12
100 18 14 6 53 15 86 19 33 4 76 12 95 17 42 12 88 5 109 -16z m6969 -247 c15
-13 51 -41 79 -62 29 -21 120 -100 203 -175 82 -76 156 -138 163 -138 7 0 23
-17 35 -39 12 -21 43 -54 68 -72 25 -19 59 -47 75 -62 34 -32 103 -66 137 -67
12 0 22 -4 22 -9 0 -5 8 -11 18 -15 9 -3 31 -15 47 -26 17 -11 37 -23 45 -27
8 -3 27 -15 42 -25 14 -10 34 -18 43 -18 10 0 40 -13 67 -30 31 -19 62 -30 86
-30 21 0 56 -11 82 -26 58 -34 124 -54 178 -54 23 0 70 -12 105 -26 91 -38
155 -54 220 -54 42 0 75 -8 121 -29 37 -17 99 -34 150 -41 55 -8 109 -23 147
-41 32 -16 74 -29 92 -29 48 -1 109 -17 119 -32 14 -21 1 -93 -32 -169 -16
-39 -33 -97 -36 -128 -7 -56 -36 -148 -60 -186 -6 -11 -15 -59 -19 -108 -4
-48 -16 -111 -26 -140 -36 -96 -48 -132 -59 -182 -6 -27 -19 -72 -30 -100 -11
-27 -31 -104 -44 -171 -14 -67 -36 -152 -49 -190 -13 -38 -27 -87 -31 -109 -6
-36 -23 -90 -46 -150 -11 -29 -30 -113 -30 -131 0 -9 -6 -30 -14 -47 -7 -18
-23 -97 -36 -177 -24 -157 -38 -202 -70 -228 -16 -13 -23 -35 -30 -102 -10
-101 -17 -122 -39 -118 -24 5 -20 133 7 196 22 51 42 283 42 482 0 57 5 152
12 210 15 133 -7 452 -35 510 -34 71 -95 137 -199 215 -133 100 -146 113 -331
320 -40 44 -74 82 -78 85 -3 3 -29 37 -57 76 -28 38 -63 81 -79 95 -16 13 -34
36 -42 51 -7 15 -37 50 -66 79 -28 28 -61 68 -71 88 -10 20 -29 47 -42 61 -13
14 -30 39 -39 55 -8 17 -41 55 -73 85 -39 37 -65 73 -80 110 -13 30 -37 69
-54 85 -17 17 -49 56 -71 87 -22 31 -50 62 -62 68 -11 7 -29 30 -38 51 -10 21
-33 52 -52 70 -19 17 -41 47 -49 65 -8 19 -40 60 -72 92 -113 114 -256 281
-263 306 -14 49 52 63 99 21z m3014 -76 c34 -32 88 -73 122 -90 34 -17 73 -40
88 -50 14 -10 30 -19 34 -19 4 0 20 -11 34 -25 14 -13 55 -35 90 -48 36 -13
85 -38 109 -55 24 -18 54 -32 67 -32 23 0 94 -29 104 -42 9 -11 112 -55 161
-68 24 -7 68 -25 98 -41 29 -17 74 -32 98 -36 25 -3 57 -16 73 -29 15 -13 33
-24 39 -24 6 0 11 -4 11 -10 0 -5 14 -10 30 -10 17 0 124 -31 239 -70 114 -38
217 -70 229 -70 12 0 43 -13 69 -30 32 -20 60 -30 87 -30 51 0 142 -16 231
-42 158 -44 224 -57 295 -58 46 0 113 -10 172 -24 53 -14 160 -30 243 -37 134
-11 151 -11 196 6 48 17 51 17 69 0 32 -29 25 -65 -39 -210 -10 -22 -26 -67
-36 -100 -9 -33 -27 -85 -40 -115 -13 -31 -33 -94 -45 -140 -11 -47 -31 -105
-44 -130 -13 -25 -29 -69 -35 -97 -6 -29 -38 -134 -71 -233 -33 -100 -60 -190
-60 -201 0 -12 -13 -48 -29 -82 -15 -34 -40 -100 -54 -147 -44 -142 -81 -251
-97 -279 -4 -9 -15 -48 -23 -86 -15 -66 -56 -196 -77 -240 -14 -31 -40 -114
-40 -130 0 -8 -16 -48 -35 -88 -19 -41 -39 -104 -45 -140 -6 -38 -23 -90 -40
-121 -17 -30 -30 -61 -30 -70 0 -9 -26 -96 -59 -193 -32 -98 -64 -203 -71
-233 -7 -30 -24 -78 -37 -107 -12 -28 -23 -59 -23 -67 0 -14 -18 -68 -40 -121
-22 -52 -90 -265 -95 -300 -8 -47 -45 -154 -86 -245 -16 -36 -35 -90 -43 -121
-8 -31 -23 -74 -35 -96 -21 -42 -51 -158 -51 -199 0 -13 -13 -43 -30 -66 -16
-22 -30 -51 -30 -63 0 -24 -42 -159 -66 -212 -8 -17 -14 -37 -14 -45 0 -8 -4
-18 -9 -23 -9 -11 -39 -131 -45 -180 -1 -16 -12 -48 -23 -70 -11 -22 -24 -56
-28 -75 -7 -33 -14 -52 -50 -134 -8 -19 -15 -40 -15 -48 -1 -13 -29 -94 -69
-198 -11 -30 -21 -65 -21 -77 0 -12 -9 -39 -19 -60 -11 -21 -25 -66 -32 -100
-6 -35 -16 -63 -20 -63 -5 0 -9 -7 -9 -15 0 -9 -6 -26 -14 -38 -8 -12 -19 -47
-26 -77 -7 -30 -24 -78 -37 -107 -12 -30 -23 -67 -23 -84 0 -30 -36 -150 -48
-159 -12 -9 -30 -54 -36 -89 -4 -19 -30 -98 -60 -175 -29 -78 -59 -175 -66
-216 -7 -41 -19 -86 -26 -100 -6 -14 -23 -59 -37 -100 -14 -41 -39 -113 -56
-160 -17 -47 -30 -90 -31 -97 0 -7 -11 -37 -25 -66 -13 -30 -29 -78 -34 -108
-10 -60 -46 -155 -91 -240 -17 -31 -30 -67 -30 -79 0 -12 -8 -45 -17 -73 -15
-40 -25 -53 -53 -64 -19 -8 -47 -27 -61 -41 -14 -15 -40 -38 -58 -52 -62 -48
-89 -75 -96 -97 -3 -13 -34 -44 -68 -70 -34 -26 -66 -54 -71 -62 -5 -9 -20
-26 -33 -39 -13 -13 -34 -40 -47 -60 -32 -52 -137 -152 -159 -152 -11 0 -24
14 -34 37 -20 49 -10 125 22 168 31 39 55 107 55 151 0 37 24 106 51 144 10
14 25 67 34 119 10 57 27 113 43 145 15 28 34 78 41 111 7 33 20 73 28 89 9
17 24 70 34 119 10 49 28 105 40 124 12 19 30 73 41 121 10 48 23 89 27 92 20
12 41 73 41 114 0 33 10 66 34 113 19 38 39 95 45 128 5 33 21 81 36 107 16
29 32 80 39 128 8 44 20 88 28 98 28 31 45 76 52 137 5 41 16 74 37 107 17 26
33 64 34 85 8 80 18 118 46 161 19 30 29 59 29 84 0 24 10 54 25 77 13 22 31
70 40 108 22 97 38 153 46 153 5 0 17 34 55 160 9 30 20 60 24 65 13 17 38
108 44 158 3 26 21 76 40 111 18 36 37 86 41 112 4 26 20 77 37 113 20 42 33
90 37 134 6 60 11 72 39 98 25 23 32 38 32 67 1 57 18 119 45 161 14 24 30 72
39 124 10 56 24 99 40 124 20 30 27 57 32 118 6 74 10 83 40 113 30 29 34 39
34 87 0 37 -5 59 -17 71 -16 15 -18 15 -40 -10 -18 -21 -23 -39 -23 -81 0 -49
-3 -57 -36 -87 -32 -31 -36 -40 -42 -109 -6 -59 -13 -80 -31 -100 -30 -31 -38
-54 -47 -128 -4 -34 -14 -72 -24 -84 -36 -46 -54 -94 -61 -161 -5 -60 -10 -73
-33 -91 -22 -18 -29 -35 -38 -94 -7 -51 -18 -81 -35 -101 -15 -18 -30 -56 -39
-101 -14 -68 -26 -101 -59 -159 -11 -21 -20 -68 -24 -127 -1 -6 -14 -26 -30
-43 -19 -21 -30 -46 -33 -73 -3 -23 -22 -77 -42 -119 -20 -42 -36 -92 -36
-110 0 -18 -16 -66 -36 -106 -25 -50 -39 -95 -43 -138 -5 -42 -15 -74 -29 -94
-27 -36 -41 -70 -52 -133 -5 -26 -21 -72 -35 -102 -14 -31 -25 -62 -25 -70 0
-21 -41 -136 -57 -161 -7 -12 -20 -47 -28 -79 -9 -32 -28 -85 -44 -119 -16
-33 -34 -88 -40 -120 -6 -32 -17 -66 -25 -75 -12 -14 -29 -60 -58 -161 -6 -19
-23 -55 -39 -79 -23 -35 -29 -56 -29 -100 0 -41 -7 -68 -26 -100 -14 -25 -30
-68 -36 -95 -12 -58 -47 -146 -58 -146 -4 0 -12 -26 -19 -57 -7 -32 -25 -85
-41 -118 -30 -65 -60 -150 -60 -172 0 -8 -11 -38 -24 -66 -38 -82 -56 -128
-56 -146 0 -9 -16 -58 -35 -109 -19 -51 -35 -100 -35 -110 0 -17 -36 -93 -50
-102 -6 -4 -36 -95 -85 -259 -9 -29 -23 -60 -31 -68 -19 -20 -118 -66 -174
-82 -25 -7 -53 -17 -63 -22 -10 -6 -75 -14 -145 -19 -70 -5 -174 -19 -232 -30
-58 -11 -125 -20 -149 -20 -24 0 -71 -4 -105 -10 -33 -5 -101 -14 -151 -19
-49 -6 -114 -20 -143 -31 -33 -13 -107 -25 -202 -34 -82 -8 -154 -17 -158 -20
-21 -13 -202 -46 -252 -46 -50 0 -120 17 -136 32 -3 3 1 19 9 35 8 15 17 56
20 89 7 67 32 150 52 174 16 19 35 98 35 145 0 47 26 137 52 181 11 19 22 61
25 96 4 39 16 86 34 123 16 35 35 99 43 152 8 50 24 110 34 132 18 37 27 75
51 229 5 34 17 69 25 78 29 28 35 50 41 135 6 79 37 179 56 179 11 0 29 95 29
157 0 44 7 67 30 108 22 39 33 75 41 136 11 89 28 159 39 159 12 0 31 69 40
147 8 76 15 99 46 155 8 15 21 78 29 139 10 84 19 119 35 142 37 49 41 197 6
197 -33 0 -46 -30 -46 -107 0 -71 -2 -77 -35 -115 -24 -29 -36 -54 -40 -87
-11 -84 -28 -145 -51 -191 -16 -30 -27 -75 -32 -130 -7 -66 -16 -98 -40 -140
-21 -38 -33 -78 -40 -132 -7 -50 -21 -100 -41 -141 -20 -41 -31 -79 -31 -107
0 -23 -11 -68 -24 -99 -28 -65 -52 -147 -61 -209 -4 -24 -22 -81 -41 -127 -26
-66 -34 -99 -34 -149 0 -56 -3 -67 -30 -97 -16 -19 -30 -38 -31 -44 -1 -5 -2
-35 -3 -65 -2 -38 -12 -75 -34 -120 -19 -39 -36 -94 -42 -139 -7 -48 -22 -98
-44 -140 -22 -44 -35 -86 -38 -126 -3 -33 -18 -89 -33 -125 -15 -36 -34 -98
-41 -138 -7 -40 -21 -91 -32 -115 -30 -63 -42 -106 -42 -146 0 -57 -9 -74 -54
-109 -53 -40 -97 -42 -149 -7 -36 25 -37 27 -37 89 0 49 7 81 30 135 20 46 35
104 41 159 7 60 21 111 44 163 20 46 40 113 49 167 8 54 26 115 42 149 20 40
29 76 32 123 4 72 14 106 49 163 19 29 25 59 30 125 5 70 12 100 38 152 26 52
34 81 37 145 4 65 11 91 36 140 21 39 35 86 42 135 6 41 15 77 20 78 6 2 10
19 10 37 0 18 16 84 36 147 46 142 52 166 71 258 8 41 24 95 34 118 11 24 29
90 40 145 26 136 37 174 60 225 11 23 23 80 28 127 7 72 13 89 40 122 23 28
31 48 31 78 1 79 19 168 48 228 20 41 34 92 41 149 11 84 26 143 42 163 4 6
12 39 19 73 6 35 24 101 40 145 16 45 34 114 41 152 6 39 23 99 36 135 39 103
53 151 53 181 0 15 13 70 29 121 16 51 34 118 41 148 7 30 25 86 41 124 21 48
29 85 29 125 0 42 9 80 36 147 21 51 40 120 46 163 5 43 21 101 39 139 16 36
32 84 35 106 3 23 12 59 19 81 8 22 17 63 20 90 4 28 22 95 40 150 42 126 65
214 65 252 0 16 11 52 25 79 14 27 27 65 31 84 15 100 49 243 71 303 14 37 29
97 33 132 4 35 19 88 33 117 14 29 30 87 36 128 13 81 18 100 51 200 32 95 39
129 40 188 0 28 3 52 8 52 4 0 18 17 32 37 19 28 25 51 27 101 2 42 12 86 29
126 14 33 32 90 40 126 30 142 47 204 65 243 10 23 19 56 19 72 0 17 9 57 20
90 55 169 71 228 83 310 8 50 22 105 31 124 10 18 22 63 27 98 5 36 20 89 34
118 13 30 29 85 36 122 6 37 24 102 39 143 16 41 31 101 35 133 8 69 76 341
103 410 42 109 86 113 184 16z m-5250 -1291 c13 -18 32 -59 43 -90 14 -44 31
-70 72 -109 29 -28 53 -55 53 -61 0 -27 53 -77 115 -108 37 -19 69 -41 72 -50
3 -8 14 -34 24 -57 14 -32 19 -66 19 -132 0 -61 6 -108 20 -151 11 -34 20 -79
20 -100 0 -20 8 -52 17 -71 13 -24 18 -62 20 -134 2 -123 10 -202 29 -280 7
-33 14 -85 14 -115 0 -37 7 -66 20 -88 15 -25 20 -50 20 -105 0 -80 -8 -101
-34 -91 -20 8 -86 91 -86 109 0 6 -16 34 -35 61 -19 27 -38 63 -41 81 -4 20
-20 42 -44 62 -22 17 -53 58 -71 92 -18 33 -52 80 -76 104 -24 24 -43 48 -43
54 0 5 -27 38 -61 73 -33 34 -67 76 -75 91 -8 15 -33 45 -56 65 -23 20 -46 49
-52 63 -14 33 -62 88 -103 117 -70 50 -82 137 -33 224 32 56 40 71 89 182 24
53 31 83 31 135 1 36 5 86 11 111 6 25 13 57 16 72 6 30 48 78 69 78 7 0 24
-15 36 -32z m1645 -309 c79 -44 109 -63 135 -87 17 -15 50 -29 95 -38 80 -17
98 -34 107 -101 3 -28 21 -72 42 -108 35 -58 45 -83 78 -205 8 -30 24 -82 36
-114 11 -33 20 -69 20 -80 0 -12 14 -50 30 -84 36 -77 42 -175 13 -211 -10
-11 -22 -18 -28 -13 -18 13 -52 67 -74 118 -12 27 -32 69 -45 94 -50 95 -55
106 -70 141 -9 20 -32 51 -51 68 -19 17 -35 35 -35 41 0 17 -41 92 -66 123
-13 16 -24 35 -24 42 0 7 -10 26 -23 42 -12 15 -29 41 -37 57 -8 17 -34 50
-58 75 -78 83 -85 94 -109 164 -19 54 -22 72 -12 83 16 19 32 18 76 -7z m6992
-1566 c14 -9 35 -13 52 -9 23 4 36 -1 63 -25 23 -20 51 -33 84 -38 28 -4 64
-19 85 -35 20 -15 64 -34 99 -42 35 -8 81 -26 102 -41 25 -16 61 -28 99 -33
73 -8 91 -27 82 -85 -6 -43 -33 -104 -68 -157 -22 -32 -43 -89 -67 -178 -6
-25 -29 -79 -49 -120 -21 -41 -41 -90 -45 -109 -3 -18 -22 -65 -41 -105 -19
-39 -41 -102 -50 -139 -17 -78 -52 -131 -97 -146 -17 -6 -32 -11 -34 -11 -1 0
-20 15 -42 34 -30 25 -54 35 -92 39 -59 7 -85 -3 -95 -34 -11 -34 22 -58 96
-70 69 -11 79 -19 110 -84 24 -51 24 -99 -1 -152 -18 -41 -21 -43 -64 -43 -37
0 -50 6 -80 35 -33 32 -41 35 -97 35 -69 0 -99 -12 -99 -40 0 -22 20 -35 71
-44 20 -4 53 -19 73 -35 19 -16 53 -31 75 -35 63 -10 73 -56 22 -98 -11 -10
-23 -30 -26 -45 -12 -54 -31 -78 -68 -81 -28 -3 -41 4 -77 39 -42 41 -44 41
-97 36 -59 -6 -87 -22 -75 -42 17 -30 138 -115 164 -115 59 0 89 -84 51 -140
-61 -92 -112 -105 -176 -45 -34 32 -42 35 -96 35 -97 0 -111 -46 -26 -89 28
-14 62 -34 75 -43 14 -9 42 -20 62 -23 20 -4 45 -13 55 -20 17 -13 17 -15 -5
-53 -12 -22 -22 -55 -22 -74 0 -50 -24 -78 -67 -78 -41 0 -122 35 -130 56 -6
16 -63 28 -91 19 -77 -24 23 -139 133 -154 91 -13 97 -43 28 -145 -54 -82 -58
-86 -97 -86 -21 0 -39 11 -66 40 -65 70 -167 64 -158 -9 4 -32 79 -85 135 -95
71 -13 83 -28 83 -101 0 -110 -22 -132 -120 -123 -34 3 -61 14 -87 34 -44 33
-105 36 -135 6 -18 -18 -17 -20 32 -70 28 -29 54 -52 58 -52 42 -1 140 -24
149 -36 13 -17 6 -46 -26 -111 -12 -23 -21 -46 -21 -51 0 -5 -9 -17 -20 -27
-31 -28 -100 -16 -157 29 -52 40 -84 45 -112 17 -16 -16 -18 -26 -11 -58 13
-57 40 -73 120 -73 79 0 100 -14 100 -63 0 -103 -28 -145 -109 -166 -58 -15
-81 -7 -107 37 -24 42 -49 55 -77 41 -62 -32 -74 -78 -33 -125 21 -25 28 -28
89 -26 62 2 68 0 84 -25 25 -38 23 -108 -5 -165 -23 -47 -25 -48 -71 -48 -64
0 -110 17 -139 52 -30 35 -66 37 -88 3 -34 -52 3 -125 65 -125 62 -1 124 -17
138 -36 18 -24 17 -89 -2 -104 -8 -7 -15 -18 -15 -25 0 -7 -14 -25 -31 -39
-40 -34 -104 -36 -145 -4 -16 12 -31 25 -34 29 -10 12 -52 21 -76 15 -24 -6
-54 -51 -54 -81 0 -8 9 -24 20 -35 16 -16 33 -20 95 -20 77 0 125 -14 125 -36
0 -15 -33 -38 -70 -49 -14 -4 -40 -20 -57 -36 -18 -15 -50 -31 -70 -34 -43 -6
-128 -48 -158 -77 -50 -49 -237 -158 -269 -158 -11 0 -36 -16 -56 -35 -27 -26
-50 -38 -86 -44 -64 -11 -190 -72 -231 -111 -27 -25 -36 -29 -52 -21 -49 27
-38 122 19 171 11 9 29 64 36 110 4 27 19 60 37 84 21 26 33 55 38 90 8 56 17
81 54 141 14 22 25 48 25 57 0 25 89 248 111 279 10 14 21 38 25 55 4 16 23
67 41 114 19 47 43 112 54 145 11 33 31 83 44 110 31 64 72 166 92 230 9 28
28 66 44 86 19 24 32 57 41 105 6 38 24 89 39 114 15 25 33 70 40 100 7 30 24
72 38 93 16 25 27 61 32 99 6 47 13 67 37 92 22 23 32 45 37 84 4 28 11 52 16
52 5 0 9 5 9 11 0 6 11 24 24 40 15 18 27 48 31 77 9 76 25 124 53 160 18 24
27 49 30 90 4 48 9 62 37 88 23 23 34 43 38 76 3 24 22 78 42 119 19 40 35 80
35 87 0 8 17 53 39 101 21 47 42 109 46 136 4 28 17 64 29 80 12 17 30 53 41
80 10 28 21 52 24 55 15 13 32 55 41 98 11 60 38 122 61 142 3 3 11 31 17 64
7 32 25 81 42 107 16 27 35 71 40 97 6 26 12 56 15 68 2 11 17 37 33 57 20 25
32 56 42 108 7 41 22 89 34 109 22 36 30 53 64 130 17 41 28 75 48 150 3 14
16 39 28 55 27 36 43 77 52 130 8 47 18 61 59 87 31 19 53 17 94 -9z m-8865
-912 c45 -10 85 -38 106 -74 13 -24 13 -28 -3 -44 -14 -15 -34 -18 -100 -17
-121 1 -151 25 -126 102 14 45 26 54 59 47 14 -3 42 -10 64 -14z m1156 -312
l33 -12 -7 -106 c-3 -58 -7 -471 -9 -917 l-3 -811 -29 -27 c-20 -17 -37 -24
-52 -21 -11 3 -624 5 -1362 5 -1223 1 -1342 2 -1356 17 -9 9 -20 26 -24 37 -5
12 -7 416 -6 899 3 972 0 920 67 932 18 3 407 4 863 3 700 -3 1781 3 1836 10
9 1 31 -3 49 -9z m2541 -815 c12 -34 -3 -83 -35 -113 -22 -20 -25 -21 -40 -6
-18 19 -20 37 -7 82 19 64 63 84 82 37z m3572 -424 c22 -41 47 -82 56 -90 21
-19 57 -87 65 -122 4 -19 19 -34 44 -47 64 -33 66 -39 44 -128 -11 -43 -32
-98 -46 -123 -14 -25 -26 -55 -26 -66 0 -28 -24 -84 -55 -130 -18 -26 -25 -50
-25 -84 0 -39 -6 -53 -36 -89 -24 -27 -38 -56 -41 -78 -4 -37 -16 -67 -58
-143 -13 -25 -25 -53 -25 -63 0 -31 -33 -121 -53 -149 -12 -16 -22 -49 -25
-81 -3 -40 -11 -61 -32 -86 -16 -18 -38 -62 -50 -99 -12 -37 -30 -81 -41 -98
-10 -17 -19 -40 -19 -50 0 -27 -24 -92 -60 -163 -17 -33 -34 -78 -37 -98 -5
-42 -28 -99 -42 -108 -5 -3 -12 -19 -16 -36 -7 -32 -20 -58 -47 -99 -10 -14
-22 -50 -28 -80 -7 -30 -24 -76 -40 -101 -16 -27 -31 -70 -35 -100 -8 -61 -16
-78 -48 -112 -12 -13 -29 -37 -38 -54 -12 -22 -27 -33 -60 -41 -31 -8 -58 -25
-92 -60 -26 -28 -72 -62 -101 -78 -47 -25 -56 -26 -71 -14 -23 19 -16 98 13
160 23 50 75 193 102 285 10 33 28 85 40 115 13 30 28 80 35 110 7 30 24 77
39 104 14 27 26 65 26 85 0 20 14 65 31 101 16 35 37 95 45 133 8 38 25 88 39
111 14 24 30 70 36 102 6 32 19 74 30 92 10 18 19 48 19 66 0 33 44 177 95
311 15 39 31 96 35 129 5 32 16 66 25 76 8 9 27 53 41 96 13 44 33 98 44 121
11 23 24 62 30 87 9 41 40 134 60 181 5 11 11 36 15 56 3 21 17 53 30 73 14
20 25 49 25 63 0 32 14 76 51 167 16 38 29 73 29 79 0 18 33 48 48 45 9 -2 33
-37 55 -78z m-9386 -1482 c15 -7 46 -27 69 -44 23 -18 63 -50 90 -70 27 -20
51 -41 52 -46 2 -4 10 -8 17 -8 7 0 28 -17 47 -38 19 -21 54 -54 78 -73 24
-19 75 -66 114 -104 39 -39 99 -91 132 -117 39 -29 63 -55 66 -71 8 -42 -4
-50 -70 -45 -48 3 -70 11 -113 41 -30 20 -82 43 -116 51 -105 27 -158 58 -233
136 -39 40 -79 92 -91 114 -11 23 -47 70 -79 105 -70 74 -89 117 -72 156 9 20
19 25 46 25 19 0 48 -5 63 -12z m-150 -568 c29 -17 77 -35 106 -40 48 -10 115
-37 127 -51 13 -16 70 -38 115 -44 65 -9 116 -26 206 -69 108 -50 219 -93 264
-102 22 -4 63 -20 91 -35 28 -16 60 -29 72 -29 29 0 103 -29 127 -51 11 -9 79
-47 150 -84 72 -37 160 -83 196 -103 36 -21 89 -49 117 -65 34 -18 54 -35 58
-52 3 -13 20 -35 37 -48 106 -81 158 -153 172 -237 8 -49 -10 -107 -36 -115
-41 -13 -130 23 -208 84 -25 20 -50 31 -71 31 -44 0 -122 20 -141 36 -8 8 -23
14 -32 14 -9 0 -18 4 -22 9 -3 5 -31 17 -63 26 -31 9 -66 22 -77 29 -32 20
-147 63 -189 70 -21 4 -56 19 -77 33 -21 14 -69 32 -105 39 -37 8 -73 19 -79
24 -29 24 -170 63 -343 96 -40 7 -94 23 -120 35 -26 12 -67 31 -92 43 -25 12
-61 35 -80 51 -19 17 -71 53 -115 80 -44 28 -110 80 -146 118 -37 37 -73 67
-81 67 -40 0 -82 102 -68 165 11 48 39 74 109 96 72 24 128 18 198 -21z
m10738 -118 c37 -23 53 -55 94 -181 26 -81 26 -131 1 -201 -11 -30 -20 -63
-20 -72 0 -26 -19 -56 -67 -107 -37 -40 -48 -46 -100 -52 -32 -5 -82 -11 -111
-15 l-53 -7 -60 64 c-71 75 -79 92 -79 165 0 60 -15 96 -53 132 -32 30 -69 26
-78 -8 -13 -47 -10 -238 5 -277 7 -21 20 -58 27 -82 7 -24 20 -53 29 -65 10
-11 31 -50 48 -86 22 -45 59 -94 122 -159 49 -52 90 -102 90 -110 0 -9 9 -31
20 -49 14 -23 20 -50 20 -92 0 -54 3 -61 28 -77 24 -15 40 -31 110 -109 33
-38 41 -76 39 -189 -2 -107 -1 -111 31 -166 17 -31 32 -64 32 -73 0 -9 17 -49
38 -89 l37 -72 -2 -123 c-2 -116 -1 -127 24 -173 l26 -50 -21 -47 c-28 -63
-34 -96 -26 -138 13 -70 73 -67 118 5 21 33 28 61 37 158 15 153 24 176 83
198 55 21 105 11 154 -30 17 -14 40 -25 53 -25 39 0 94 -58 113 -119 20 -68
13 -119 -28 -180 -46 -68 -107 -96 -216 -97 -77 0 -90 -3 -142 -33 -32 -18
-60 -37 -63 -42 -4 -5 -15 -9 -26 -9 -40 0 -145 -86 -185 -151 -9 -14 -35 -34
-58 -45 -25 -11 -52 -35 -69 -61 -19 -28 -39 -45 -65 -54 -20 -7 -57 -29 -82
-49 -25 -20 -56 -41 -70 -47 -66 -28 -191 -89 -240 -118 -30 -18 -72 -38 -92
-44 -20 -7 -55 -25 -77 -42 -23 -16 -48 -29 -57 -29 -9 0 -41 -16 -72 -35 -96
-58 -140 -68 -297 -69 -77 -1 -167 4 -200 11 -143 29 -222 33 -303 17 -133
-27 -189 5 -222 126 -6 24 -18 53 -25 64 -18 27 -45 131 -45 173 0 18 -4 33
-10 33 -5 0 -10 5 -10 11 0 6 -11 24 -25 41 -16 18 -25 42 -25 63 0 37 -33
129 -79 222 -17 34 -31 67 -31 73 0 6 -11 26 -25 44 -13 17 -50 83 -81 146
-40 80 -77 137 -121 186 -35 39 -63 76 -63 82 0 6 -61 71 -135 144 -165 163
-188 183 -294 258 -11 8 -26 30 -32 50 -7 19 -20 47 -30 62 -30 42 -24 82 22
143 23 30 44 55 48 55 4 0 15 16 25 35 18 33 118 125 136 125 4 0 15 17 23 39
12 29 29 46 69 69 29 16 63 41 75 55 12 14 59 44 105 67 46 22 103 52 128 65
25 14 76 39 114 56 38 17 88 48 110 68 44 40 110 81 129 81 7 0 35 18 62 40
59 47 137 90 162 90 10 0 37 18 61 39 28 26 65 46 112 62 39 12 79 31 90 41
10 10 23 18 27 18 4 0 44 18 87 40 44 22 86 40 95 40 23 0 305 146 356 184 25
20 63 40 84 46 22 6 46 21 55 35 22 33 60 51 126 60 30 4 81 20 113 36 41 20
73 29 110 30 29 0 70 4 92 8 22 5 85 9 140 10 81 1 106 -3 130 -17z m-10671
-667 c64 -26 102 -35 143 -35 31 0 79 -6 107 -14 28 -8 89 -23 136 -35 172
-41 255 -64 269 -75 19 -15 82 -36 109 -36 26 0 57 -14 87 -40 11 -9 49 -24
85 -34 36 -9 81 -28 101 -41 20 -13 78 -37 130 -55 51 -17 114 -42 139 -56 38
-20 127 -49 220 -71 14 -4 46 -21 72 -38 26 -18 66 -36 90 -40 24 -4 56 -15
73 -24 28 -17 83 -93 84 -119 1 -7 19 -42 41 -79 22 -36 48 -89 56 -117 8 -28
19 -58 24 -67 5 -9 12 -38 15 -65 7 -47 21 -84 35 -94 15 -11 50 -179 50 -237
0 -51 -4 -66 -22 -83 -44 -41 -103 -15 -194 88 -26 29 -66 62 -89 73 -56 26
-121 83 -142 122 -8 17 -22 37 -30 45 -7 8 -29 38 -48 68 -19 29 -44 63 -56
75 -13 13 -27 36 -33 53 -17 47 -38 72 -76 89 -19 9 -55 34 -80 57 -25 23 -80
62 -122 87 -42 25 -79 51 -82 59 -7 19 -74 58 -126 73 -25 7 -58 17 -73 22
-15 4 -40 17 -55 27 -37 27 -96 42 -163 42 -31 0 -99 12 -150 26 -176 48 -249
55 -301 28 -67 -35 -116 2 -381 286 -79 85 -79 84 -67 116 6 16 18 35 27 42
31 23 106 14 197 -23z m10702 -160 c33 -10 94 -15 187 -15 153 0 150 1 243
-77 43 -36 53 -51 64 -97 17 -72 9 -216 -15 -252 -15 -23 -21 -25 -53 -19 -21
4 -98 10 -172 13 -86 5 -142 12 -155 21 -41 27 -92 131 -110 224 -8 40 -19 73
-27 76 -25 8 -78 69 -78 89 0 25 25 52 49 52 10 0 40 -7 67 -15z m-10101 -519
c72 -19 142 -36 158 -36 29 0 58 -14 91 -42 10 -10 35 -23 55 -29 66 -20 119
-48 145 -76 14 -15 26 -31 26 -35 0 -19 -54 -33 -150 -39 -80 -5 -123 -13
-180 -35 -127 -48 -278 -34 -314 30 -6 11 -26 35 -44 55 -42 46 -75 134 -66
175 3 17 16 41 28 54 18 20 28 23 71 19 27 -3 109 -21 180 -41z m10473 -152
c137 -34 149 -40 178 -101 44 -89 46 -293 4 -345 l-18 -23 -40 23 c-22 12 -54
22 -71 22 -35 0 -109 34 -128 59 -7 9 -13 25 -13 37 0 20 -43 93 -62 105 -15
10 -28 119 -19 161 18 80 49 91 169 62z m82 -1314 c33 -18 41 -48 46 -168 4
-109 27 -244 44 -267 17 -22 39 -135 43 -217 3 -74 7 -92 30 -125 24 -34 27
-49 27 -117 0 -94 -42 -271 -70 -296 -16 -14 -58 -99 -65 -130 -4 -19 -19 -50
-33 -69 -32 -43 -41 -85 -52 -251 -10 -144 -40 -312 -65 -360 -8 -16 -15 -45
-15 -64 0 -85 -99 -274 -193 -368 -37 -37 -67 -75 -67 -86 0 -19 -42 -72 -57
-72 -4 0 -46 -34 -93 -76 -47 -42 -114 -95 -150 -119 -36 -23 -74 -52 -84 -63
-11 -12 -25 -22 -33 -22 -7 0 -46 -33 -86 -72 -40 -40 -96 -93 -123 -118 -28
-25 -59 -60 -68 -77 -9 -18 -31 -43 -49 -57 -19 -14 -46 -48 -61 -76 -16 -30
-69 -89 -135 -150 -159 -149 -207 -176 -231 -131 -6 12 -10 118 -10 273 0 250
0 256 -30 372 -17 65 -35 126 -40 136 -6 10 -10 45 -10 77 0 56 -2 61 -40 98
-33 32 -40 46 -40 77 0 21 -10 60 -23 86 -13 26 -31 76 -41 112 -10 36 -31
101 -47 145 -16 44 -34 103 -41 130 -6 28 -19 64 -28 80 -9 17 -20 52 -23 78
-4 27 -13 63 -21 80 -32 76 -39 96 -58 167 -10 41 -26 93 -34 115 -8 22 -21
63 -28 90 -8 28 -23 75 -34 106 -11 31 -27 100 -36 153 -10 55 -29 122 -46
158 -27 58 -50 144 -50 189 0 44 114 64 225 39 29 -7 78 -9 116 -5 45 5 69 3
74 -4 3 -6 24 -20 45 -31 33 -17 59 -20 157 -20 101 0 128 4 187 25 38 14 74
29 80 34 6 5 36 17 66 27 30 9 78 34 106 55 28 22 58 39 66 39 24 0 82 27 141
64 28 18 91 50 139 70 47 21 101 49 120 63 18 13 56 35 83 47 64 29 160 90
177 113 7 10 29 30 48 45 44 33 96 84 137 136 34 42 130 106 192 128 45 16 39
16 61 4z m-2997 -4169 c45 -20 67 -21 320 -21 223 1 275 3 291 15 23 17 52 19
61 5 8 -12 -24 -66 -57 -97 -13 -12 -47 -28 -75 -36 -39 -9 -64 -24 -96 -57
-29 -30 -67 -55 -113 -74 -38 -16 -93 -44 -122 -62 -28 -19 -80 -43 -113 -54
-34 -12 -68 -28 -76 -36 -19 -19 -88 -54 -106 -54 -7 0 -54 -20 -104 -45 -50
-25 -123 -59 -162 -75 -39 -16 -90 -42 -113 -58 -24 -16 -56 -32 -72 -36 -17
-4 -47 -21 -68 -37 -21 -17 -55 -35 -75 -41 -21 -6 -53 -24 -72 -40 -19 -17
-54 -38 -78 -49 -45 -19 -109 -63 -129 -88 -14 -17 -138 -104 -189 -131 -22
-12 -57 -44 -78 -70 -23 -31 -48 -51 -66 -55 -29 -6 -36 -12 -106 -85 -49 -52
-95 -73 -128 -61 -29 11 -36 27 -47 105 -5 33 -20 81 -34 108 -29 55 -124 168
-143 168 -6 0 -27 19 -47 43 -19 23 -57 55 -85 71 -31 19 -54 40 -60 57 -5 14
-28 44 -50 65 -23 21 -66 74 -97 118 -92 135 -100 147 -186 245 -21 24 -38 50
-38 57 0 31 50 47 168 55 224 15 266 21 302 42 25 15 61 23 125 28 50 4 119
15 155 24 53 13 158 33 315 61 11 2 29 11 40 21 14 13 51 22 130 32 99 12 156
17 373 36 35 3 76 12 90 20 23 13 69 15 297 11 245 -4 274 -6 318 -25z"/>
<path d="M11591 23091 c-20 -7 -73 -17 -119 -20 -59 -5 -90 -13 -109 -27 -41
-30 -39 -43 9 -63 34 -15 77 -21 203 -26 88 -3 204 -10 258 -16 103 -11 170
-6 226 17 18 8 41 14 51 14 20 0 50 31 50 52 0 23 -29 42 -95 63 -50 16 -91
20 -249 20 -137 0 -200 -4 -225 -14z"/>
<path d="M10442 22550 c-6 -11 -12 -25 -12 -32 0 -18 -89 -150 -112 -166 -53
-38 -93 -102 -83 -132 5 -16 16 -20 54 -20 42 0 51 4 78 35 17 19 35 35 40 35
4 0 21 -11 37 -25 15 -13 54 -32 85 -41 31 -8 71 -27 89 -40 21 -17 60 -30
114 -41 50 -9 96 -25 120 -41 35 -23 54 -27 166 -34 91 -6 161 -18 247 -41
l120 -32 370 -1 c346 -1 445 5 445 25 0 19 64 31 220 40 91 5 177 14 192 20
29 11 65 57 54 68 -4 4 -341 7 -749 8 l-742 0 -55 28 c-43 23 -76 30 -152 37
-83 7 -105 12 -146 38 -32 19 -78 36 -130 46 -150 28 -165 43 -176 178 -3 38
-10 77 -16 88 -14 26 -42 26 -58 0z"/>
<path d="M18604 14846 c-7 -31 4 -68 19 -63 16 5 15 79 0 84 -7 3 -15 -7 -19
-21z"/>
<path d="M18519 14663 c-15 -38 0 -117 23 -121 23 -4 46 95 29 126 -16 30 -39
27 -52 -5z"/>
<path d="M15641 12607 c-13 -34 -15 -147 -1 -147 8 0 15 27 24 100 2 14 0 36
-4 50 l-7 25 -12 -28z"/>
<path d="M20645 15273 c-11 -2 -34 -16 -52 -31 -67 -56 -68 -184 -3 -244 58
-54 163 -28 195 48 48 116 -35 250 -140 227z"/>
<path d="M11219 14203 c-25 -6 -30 -42 -9 -63 16 -16 47 -18 306 -24 159 -4
485 -5 725 -2 462 5 479 6 479 51 0 44 -25 45 -776 44 -390 -1 -716 -3 -725
-6z"/>
<path d="M10515 14187 c-16 -6 -44 -25 -61 -42 -16 -16 -42 -38 -57 -49 -46
-32 -60 -89 -55 -223 5 -138 12 -156 97 -223 l56 -45 101 1 c74 1 109 6 135
19 41 22 136 116 148 148 15 42 12 227 -5 261 -8 17 -52 59 -100 94 -82 60
-87 62 -157 67 -45 3 -83 0 -102 -8z"/>
<path d="M11218 13969 c-23 -13 -23 -67 0 -96 l17 -22 720 -2 720 -1 32 38
c39 44 39 45 12 70 -20 18 -49 19 -753 21 -487 2 -737 -1 -748 -8z"/>
<path d="M12576 13743 c-4 -5 -307 -8 -672 -8 l-665 0 -20 -25 c-26 -34 -21
-81 11 -97 19 -10 184 -13 732 -13 l707 0 25 23 c40 36 39 90 -4 112 -30 16
-101 20 -114 8z"/>
<path d="M10550 13499 c-25 -4 -69 -12 -99 -17 -46 -8 -59 -16 -100 -60 -27
-29 -56 -52 -71 -54 -16 -2 -30 -14 -38 -31 -23 -47 -43 -184 -48 -330 -5
-128 -4 -139 15 -163 l21 -27 388 -1 389 -1 18 23 c14 20 17 47 19 170 l1 147
-32 62 c-18 34 -33 71 -33 80 0 30 -56 90 -90 96 -17 4 -41 17 -54 31 -77 76
-162 98 -286 75z"/>
<path d="M11219 13454 c-25 -27 -24 -49 3 -68 20 -14 106 -16 730 -16 627 0
712 2 748 16 22 9 40 20 40 25 0 5 -19 21 -42 35 l-42 27 -708 1 c-704 1 -709
1 -729 -20z"/>
<path d="M11223 13213 c-28 -19 -30 -49 -3 -63 33 -18 1423 -16 1475 2 55 18
51 39 -10 60 -45 15 -118 17 -745 16 -600 0 -698 -2 -717 -15z"/>
<path d="M11245 12990 c-12 -4 -27 -15 -35 -25 -12 -15 -12 -20 0 -41 l15 -25
713 -3 c649 -4 717 -3 745 12 59 31 62 53 10 72 -31 11 -170 14 -733 16 -382
1 -704 -2 -715 -6z"/>
</g>
</svg>
